<svg width="653" height="519" viewBox="0 0 653 519" fill="none" xmlns="http://www.w3.org/2000/svg">
<path d="M282.297 465.092L287.516 466.055L288.685 471.553L289.842 466.055L295.061 465.092L289.868 463.82L288.685 458.631L287.49 463.82L282.297 465.092Z" fill="white" fill-opacity="0.2"/>
<path d="M599.07 223.361L600.034 218.142L605.531 216.972L600.034 215.816L599.07 210.597L597.799 215.79L592.609 216.972L597.799 218.168L599.07 223.361Z" fill="white" fill-opacity="0.2"/>
<path d="M165.57 272.038L170.789 273.002L171.946 278.499L173.116 273.002L178.334 272.038L173.141 270.767L171.946 265.578L170.763 270.767L165.57 272.038Z" fill="white" fill-opacity="0.2"/>
<path d="M455.441 269.776L460.66 270.739L461.83 276.237L463 270.739L468.205 269.763L463.012 268.504L461.83 263.315L460.634 268.504L455.441 269.776Z" fill="white" fill-opacity="0.2"/>
<path d="M511.844 416.912L514.762 417.452L515.417 420.521L516.06 417.452L518.978 416.912L516.073 416.206L515.417 413.303L514.749 416.206L511.844 416.912Z" fill="white" fill-opacity="0.2"/>
<path d="M471.92 60.2545L474.838 60.794L475.48 63.8639L476.136 60.794L479.054 60.2545L476.149 59.5352L475.48 56.6323L474.825 59.5352L471.92 60.2545Z" fill="white" fill-opacity="0.2"/>
<path d="M529.377 151.606L532.295 152.146L532.95 155.216L533.593 152.146L536.511 151.606L533.606 150.887L532.95 147.997L532.282 150.887L529.377 151.606Z" fill="white" fill-opacity="0.2"/>
<path d="M84.0898 192.798L87.0077 193.338L87.6504 196.408L88.306 193.338L91.2238 192.798L88.3188 192.079L87.6504 189.189L86.9948 192.079L84.0898 192.798Z" fill="white" fill-opacity="0.2"/>
<path d="M9.70312 432.12L12.6081 432.66L13.2637 435.729L13.9192 432.66L16.8371 432.12L13.9321 431.414L13.2637 428.511L12.5953 431.414L9.70312 432.12Z" fill="white" fill-opacity="0.2"/>
<path d="M493.463 356.452L496.381 356.991L497.023 360.061L497.679 356.991L500.597 356.452L497.692 355.745L497.023 352.842L496.368 355.745L493.463 356.452Z" fill="white" fill-opacity="0.2"/>
<path d="M95.7871 449.845L98.705 450.384L99.3605 453.454L100.003 450.384L102.921 449.845L100.016 449.138L99.3605 446.235L98.6921 449.138L95.7871 449.845Z" fill="white" fill-opacity="0.2"/>
<path d="M583.826 409.87L584.366 406.952L587.435 406.297L584.366 405.654L583.826 402.736L583.12 405.641L580.217 406.297L583.12 406.965L583.826 409.87Z" fill="white" fill-opacity="0.2"/>
<path d="M198.502 72.7014L201.42 73.2409L202.075 76.3107L202.731 73.2409L205.636 72.7014L202.731 71.9949L202.075 69.092L201.407 71.9949L198.502 72.7014Z" fill="white" fill-opacity="0.2"/>
<path d="M371.156 158.824L374.074 159.363L374.73 162.433L375.372 159.363L378.29 158.824L375.385 158.117L374.73 155.215L374.061 158.117L371.156 158.824Z" fill="white" fill-opacity="0.2"/>
<path d="M139.439 389.834L142.357 390.374L143 393.444L143.656 390.374L146.573 389.834L143.668 389.128L143 386.225L142.344 389.128L139.439 389.834Z" fill="white" fill-opacity="0.2"/>
<path d="M13.2628 484.847C14.3554 484.847 14.3554 486.542 13.2628 486.542C12.1702 486.542 12.1702 484.847 13.2628 484.847Z" fill="white" fill-opacity="0.2"/>
<path d="M618.824 492.395C618.824 491.303 620.52 491.303 620.52 492.395C620.52 493.488 618.824 493.488 618.824 492.395Z" fill="white" fill-opacity="0.2"/>
<path d="M434.448 382.024C435.541 382.024 435.541 383.72 434.448 383.72C433.356 383.707 433.356 382.024 434.448 382.024Z" fill="white" fill-opacity="0.2"/>
<path d="M442.433 261.235C443.525 261.235 443.525 262.931 442.433 262.931C441.34 262.931 441.34 261.235 442.433 261.235Z" fill="white" fill-opacity="0.2"/>
<path d="M383.304 198.964C384.397 198.964 384.397 200.66 383.304 200.66C382.224 200.647 382.224 198.964 383.304 198.964Z" fill="white" fill-opacity="0.2"/>
<path d="M122.329 496.28C123.422 496.28 123.422 497.975 122.329 497.975C121.237 497.962 121.237 496.28 122.329 496.28Z" fill="white" fill-opacity="0.2"/>
<path d="M630.258 383.328C630.258 382.235 631.953 382.235 631.953 383.328C631.94 384.42 630.258 384.42 630.258 383.328Z" fill="white" fill-opacity="0.2"/>
<path d="M87.6477 447.315C88.7403 447.315 88.7403 449.01 87.6477 449.01C86.568 449.01 86.568 447.315 87.6477 447.315Z" fill="white" fill-opacity="0.2"/>
<path d="M581.295 418.007C581.295 416.914 582.99 416.914 582.99 418.007C582.99 419.086 581.295 419.086 581.295 418.007Z" fill="white" fill-opacity="0.2"/>
<path d="M174.788 424.902C175.881 424.902 175.881 426.597 174.788 426.597C173.696 426.585 173.696 424.902 174.788 424.902Z" fill="white" fill-opacity="0.2"/>
<path d="M334.845 447.315C335.937 447.315 335.937 449.01 334.845 449.01C333.752 449.01 333.752 447.315 334.845 447.315Z" fill="white" fill-opacity="0.2"/>
<path d="M581.295 170.811C581.295 169.719 582.99 169.719 582.99 170.811C582.99 171.904 581.295 171.904 581.295 170.811Z" fill="white" fill-opacity="0.2"/>
<path d="M474.671 393.085C475.764 393.085 475.764 394.78 474.671 394.78C473.578 394.78 473.578 393.085 474.671 393.085Z" fill="white" fill-opacity="0.2"/>
<path d="M439.296 299.652C440.389 299.652 440.389 301.348 439.296 301.348C438.203 301.335 438.203 299.652 439.296 299.652Z" fill="white" fill-opacity="0.2"/>
<path d="M295.731 445.644C296.502 445.644 296.502 446.839 295.731 446.839C294.96 446.839 294.96 445.644 295.731 445.644Z" fill="white" fill-opacity="0.2"/>
<path d="M579.623 209.926C579.623 209.154 580.818 209.154 580.818 209.926C580.818 210.697 579.623 210.697 579.623 209.926Z" fill="white" fill-opacity="0.2"/>
<path d="M110.981 75.0127C111.752 75.0127 111.752 76.2072 110.981 76.2072C110.21 76.2072 110.21 75.0127 110.981 75.0127Z" fill="white" fill-opacity="0.2"/>
<path d="M343.033 375.897C343.804 375.897 343.804 377.092 343.033 377.092C342.274 377.092 342.261 375.897 343.033 375.897Z" fill="white" fill-opacity="0.2"/>
<path d="M112.483 452.865C113.254 452.865 113.254 454.059 112.483 454.059C111.711 454.059 111.711 452.865 112.483 452.865Z" fill="white" fill-opacity="0.2"/>
<path d="M586.844 393.172C586.844 392.401 588.038 392.401 588.038 393.172C588.038 393.943 586.844 393.943 586.844 393.172Z" fill="white" fill-opacity="0.2"/>
<path d="M265.409 308.696C266.18 308.696 266.18 309.89 265.409 309.89C264.637 309.89 264.637 308.696 265.409 308.696Z" fill="white" fill-opacity="0.2"/>
<path d="M394.742 315.554C396.825 315.554 396.838 318.791 394.742 318.791C392.66 318.791 392.647 315.554 394.742 315.554Z" fill="white" fill-opacity="0.2"/>
<path d="M167.59 92.3529L172.809 93.3163L173.965 98.8138L175.135 93.3163L180.354 92.3401L175.161 91.0813L173.965 85.8921L172.783 91.0813L167.59 92.3529Z" fill="white" fill-opacity="0.2"/>
<path d="M386.943 136.461L392.162 137.425L393.332 142.922L394.501 137.425L399.707 136.461L394.514 135.19L393.332 130L392.136 135.19L386.943 136.461Z" fill="white" fill-opacity="0.2"/>
<path d="M6.88672 268.262L12.0926 269.225L13.2623 274.722L14.432 269.225L19.6507 268.249L14.4577 266.99L13.2623 261.801L12.0797 266.99L6.88672 268.262Z" fill="white" fill-opacity="0.2"/>
<path d="M469.104 6.46086L474.322 7.42421L475.479 12.9217L476.649 7.42421L481.867 6.46086L476.674 5.18924L475.479 0L474.297 5.18924L469.104 6.46086Z" fill="white" fill-opacity="0.2"/>
<path d="M281.551 18.8554L284.456 19.3949L285.111 22.4776L285.767 19.3949L288.685 18.8554L285.78 18.149L285.111 15.2461L284.443 18.149L281.551 18.8554Z" fill="white" fill-opacity="0.2"/>
<path d="M13.2656 121.484L16.1835 122.024L16.839 125.094L17.4817 122.024L20.3996 121.484L17.4946 120.765L16.839 117.862L16.1706 120.765L13.2656 121.484Z" fill="white" fill-opacity="0.2"/>
<path d="M66.8273 116.386C67.9198 116.386 67.9198 118.081 66.8273 118.081C65.7347 118.069 65.7347 116.386 66.8273 116.386Z" fill="white" fill-opacity="0.2"/>
<path d="M2.54222 418.979C3.63481 418.979 3.63481 420.675 2.54222 420.675C1.46249 420.662 1.46249 418.979 2.54222 418.979Z" fill="white" fill-opacity="0.2"/>
<path d="M71.8908 389.835C72.9834 389.835 72.9834 391.531 71.8908 391.531C70.8111 391.531 70.7982 389.835 71.8908 389.835Z" fill="white" fill-opacity="0.2"/>
<path d="M3.36632 175.947C4.4589 175.947 4.4589 177.642 3.36632 177.642C2.27373 177.642 2.27373 175.947 3.36632 175.947Z" fill="white" fill-opacity="0.2"/>
<path d="M71.8898 48.9385C72.9823 48.9385 72.9823 50.634 71.8898 50.634C70.7972 50.6211 70.7972 48.9385 71.8898 48.9385Z" fill="white" fill-opacity="0.2"/>
<path d="M182.591 5.61255C183.684 5.61255 183.684 7.30804 182.591 7.30804C181.511 7.30804 181.511 5.61255 182.591 5.61255Z" fill="white" fill-opacity="0.2"/>
<path d="M148.627 307.667C149.398 307.667 149.398 308.862 148.627 308.862C147.856 308.862 147.856 307.667 148.627 307.667Z" fill="white" fill-opacity="0.2"/>
<path d="M148.051 461.585C148.822 461.585 148.822 462.78 148.051 462.78C147.28 462.78 147.28 461.585 148.051 461.585Z" fill="white" fill-opacity="0.2"/>
<path d="M595.566 357.605C595.566 356.833 596.761 356.833 596.761 357.605C596.761 358.376 595.566 358.376 595.566 357.605Z" fill="white" fill-opacity="0.2"/>
<path d="M453.537 110.413L456.455 110.952L457.111 114.022L457.753 110.952L460.671 110.413L457.766 109.706L457.111 106.803L456.442 109.706L453.537 110.413Z" fill="white" fill-opacity="0.2"/>
<path d="M518.797 262.945L521.715 263.484L522.37 266.554L523.026 263.484L525.944 262.945L523.039 262.238L522.37 259.335L521.702 262.238L518.797 262.945Z" fill="white" fill-opacity="0.2"/>
<path d="M445.402 113.316C446.494 113.316 446.494 115.011 445.402 115.011C444.322 115.011 444.322 113.316 445.402 113.316Z" fill="white" fill-opacity="0.2"/>
<path d="M359.061 28.874C359.832 28.874 359.832 30.0686 359.061 30.0686C358.29 30.0686 358.29 28.874 359.061 28.874Z" fill="white" fill-opacity="0.2"/>
<path d="M231.871 517.049C232.643 517.049 232.643 518.244 231.871 518.244C231.1 518.244 231.1 517.049 231.871 517.049Z" fill="white" fill-opacity="0.2"/>
<path d="M651.031 273.786C651.031 273.014 652.226 273.014 652.226 273.786C652.226 274.557 651.031 274.557 651.031 273.786Z" fill="white" fill-opacity="0.2"/>
<path d="M505.801 127.586C506.572 127.586 506.572 128.781 505.801 128.781C505.03 128.781 505.03 127.586 505.801 127.586Z" fill="white" fill-opacity="0.2"/>
<path d="M385.489 98.21C386.26 98.21 386.26 99.4045 385.489 99.4045C384.717 99.4045 384.717 98.21 385.489 98.21Z" fill="white" fill-opacity="0.2"/>
<path d="M387.225 6.70508C387.996 6.70508 387.996 7.89963 387.225 7.89963C386.454 7.89963 386.454 6.70508 387.225 6.70508Z" fill="white" fill-opacity="0.2"/>
<path d="M219.686 286.436C221.768 286.436 221.781 289.673 219.686 289.673C217.603 289.673 217.591 286.436 219.686 286.436Z" fill="white" fill-opacity="0.2"/>
<path d="M440.864 203.562C442.947 203.562 442.96 206.798 440.864 206.798C438.769 206.798 438.769 203.562 440.864 203.562Z" fill="white" fill-opacity="0.2"/>
<path d="M74.6428 205.181C76.7251 205.181 76.738 208.418 74.6428 208.418C72.5604 208.418 72.5476 205.181 74.6428 205.181Z" fill="white" fill-opacity="0.2"/>
<path d="M520.547 214.942C522.629 214.942 522.642 218.179 520.547 218.179C518.465 218.179 518.452 214.942 520.547 214.942Z" fill="white" fill-opacity="0.2"/>
<path d="M52.0568 363.196C54.1392 363.196 54.152 366.433 52.0568 366.433C49.9745 366.433 49.9616 363.196 52.0568 363.196Z" fill="white" fill-opacity="0.2"/>
<path d="M133.795 47.011L136.713 47.5504L137.355 50.6203L138.011 47.5504L140.929 47.011L138.024 46.3045L137.355 43.4016L136.7 46.3045L133.795 47.011Z" fill="white" fill-opacity="0.2"/>
<path d="M292.799 352.406L295.717 352.946L296.359 356.016L297.015 352.946L299.933 352.406L297.028 351.7L296.359 348.797L295.704 351.7L292.799 352.406Z" fill="white" fill-opacity="0.2"/>
<path d="M386.942 492.822C388.034 492.822 388.034 494.518 386.942 494.518C385.862 494.505 385.849 492.822 386.942 492.822Z" fill="white" fill-opacity="0.2"/>
<path d="M626.803 118.715C626.803 117.623 628.498 117.623 628.498 118.715C628.485 119.795 626.803 119.808 626.803 118.715Z" fill="white" fill-opacity="0.2"/>
<path d="M330.911 484.86C332.004 484.86 332.004 486.555 330.911 486.555C329.819 486.542 329.819 484.86 330.911 484.86Z" fill="white" fill-opacity="0.2"/>
<path d="M618.84 174.745C618.84 173.652 620.535 173.652 620.535 174.745C620.522 175.837 618.84 175.837 618.84 174.745Z" fill="white" fill-opacity="0.2"/>
<path d="M348.945 259.126L351.863 259.653L352.506 262.736L353.161 259.653L356.079 259.113L353.174 258.407L352.506 255.504L351.85 258.407L348.945 259.126Z" fill="white" fill-opacity="0.2"/>
<path d="M448.887 434.239L451.805 434.778L452.46 437.848L453.103 434.778L456.021 434.239L453.116 433.52L452.46 430.617L451.792 433.52L448.887 434.239Z" fill="white" fill-opacity="0.2"/>
<path d="M475.479 507.853L478.396 508.392L479.052 511.462L479.707 508.392L482.612 507.853L479.707 507.147L479.052 504.244L478.384 507.147L475.479 507.853Z" fill="white" fill-opacity="0.2"/>
<path d="M641.832 30.1775L642.371 27.2596L645.441 26.6041L642.371 25.9485L641.832 23.0435L641.126 25.9485L638.223 26.6041L641.126 27.2725L641.832 30.1775Z" fill="white" fill-opacity="0.2"/>
<path d="M361.247 97.1189C362.34 97.1189 362.34 98.8015 361.247 98.8015C360.155 98.8144 360.155 97.1189 361.247 97.1189Z" fill="white" fill-opacity="0.2"/>
<path d="M456.02 473.018C456.791 473.018 456.791 474.213 456.02 474.213C455.249 474.213 455.249 473.018 456.02 473.018Z" fill="white" fill-opacity="0.2"/>
<path d="M607 49.6371C607 48.8659 608.195 48.8659 608.195 49.6371C608.195 50.4084 607 50.4084 607 49.6371Z" fill="white" fill-opacity="0.2"/>
<path d="M34.8965 286.435L37.8143 286.975L38.4699 290.045L39.1126 286.975L42.0304 286.435L39.1254 285.729L38.4699 282.826L37.8015 285.729L34.8965 286.435Z" fill="white" fill-opacity="0.2"/>
<path d="M1.19444 348.963C2.28703 348.963 2.28703 350.659 1.19444 350.659C0.101853 350.659 0.101853 348.963 1.19444 348.963Z" fill="white" fill-opacity="0.2"/>
<path d="M210.032 215.726C211.125 215.726 211.125 217.422 210.032 217.422C208.94 217.409 208.94 215.726 210.032 215.726Z" fill="white" fill-opacity="0.2"/>
<path d="M148.051 122.216C148.822 122.216 148.822 123.411 148.051 123.411C147.28 123.411 147.28 122.216 148.051 122.216Z" fill="white" fill-opacity="0.2"/>
<path d="M50.4895 17.2383C52.5718 17.2383 52.5847 20.4751 50.4895 20.4751C48.4071 20.4751 48.4071 17.2383 50.4895 17.2383Z" fill="white" fill-opacity="0.2"/>
<path d="M434.681 53.396C436.763 53.396 436.776 56.6328 434.681 56.6328C432.599 56.6328 432.599 53.396 434.681 53.396Z" fill="white" fill-opacity="0.2"/>
</svg>
