<svg xmlns="http://www.w3.org/2000/svg" width="36" height="36" viewBox="0 0 36 36" fill="none">
<circle cx="18" cy="18" r="18" fill="#363636"/>
<path d="M18.4041 8C24.1531 7.99879 28.8273 12.7164 28.8211 18.5135C28.815 24.291 24.1461 28.9966 18.4164 29C12.6694 29.0034 7.99239 24.2819 8.00001 18.4849C8.00776 12.7044 12.6746 8.00121 18.4041 8ZM16.46 15.8941C16.4518 14.6131 17.6213 13.6759 18.858 13.9723C19.7332 14.182 20.2932 14.8742 20.3594 15.828C20.3928 16.3105 20.6078 16.5435 21.0165 16.5403C21.4243 16.5371 21.6569 16.2749 21.6599 15.8149C21.6686 14.4789 20.733 13.1912 19.4069 12.7723C19.1129 12.6794 19.0347 12.5451 19.0536 12.2619C19.0752 11.9354 19.0688 11.6059 19.0541 11.2786C19.0361 10.8731 18.7906 10.6314 18.4188 10.6251C18.0301 10.6183 17.7745 10.8696 17.7609 11.2948C17.7491 11.6633 17.7452 12.0332 17.7621 12.4014C17.7713 12.6045 17.6897 12.6774 17.5099 12.7394C15.9043 13.2933 14.9559 14.7436 15.1802 16.2833C15.4237 17.9545 16.7021 19.0903 18.4178 19.1597C19.5242 19.2045 20.3533 20.0411 20.3591 21.1189C20.3649 22.1692 19.5488 23.047 18.522 23.0949C17.4183 23.1464 16.5514 22.3595 16.4609 21.2242C16.422 20.7359 16.1689 20.4662 15.7718 20.4898C15.369 20.5138 15.1305 20.8099 15.1643 21.2969C15.2436 22.4372 15.7783 23.3016 16.7203 23.9399C17.0499 24.1632 17.5925 24.0966 17.7284 24.4918C17.8542 24.8582 17.7484 25.3027 17.7611 25.7123C17.7737 26.1194 18.0146 26.3654 18.3842 26.3767C18.7716 26.3887 19.0355 26.1379 19.0545 25.716C19.0686 25.4024 19.0834 25.0849 19.0516 24.7739C19.0196 24.4623 19.1238 24.3331 19.4234 24.2352C20.9819 23.7264 21.8963 22.1466 21.5972 20.529C21.3127 18.9905 20.0405 17.9084 18.4449 17.8478C17.292 17.8038 16.4669 16.9918 16.46 15.8941Z" fill="white"/>
</svg>