<svg width="52" height="52" viewBox="0 0 52 52" fill="none" xmlns="http://www.w3.org/2000/svg">
<circle cx="26" cy="26" r="26" fill="#1D1D1D" fill-opacity="0.4"/>
<path d="M16.25 20.5829V22.7496C17.112 22.7496 17.9386 23.092 18.5481 23.7015C19.1576 24.311 19.5 25.1376 19.5 25.9996C19.5 26.8615 19.1576 27.6882 18.5481 28.2977C17.9386 28.9072 17.112 29.2496 16.25 29.2496V31.4163C16.25 32.6079 17.225 33.5829 18.4167 33.5829H33.5833C34.158 33.5829 34.7091 33.3547 35.1154 32.9483C35.5217 32.542 35.75 31.9909 35.75 31.4163V29.2496C34.888 29.2496 34.0614 28.9072 33.4519 28.2977C32.8424 27.6882 32.5 26.8615 32.5 25.9996C32.5 25.1376 32.8424 24.311 33.4519 23.7015C34.0614 23.092 34.888 22.7496 35.75 22.7496V20.5829C35.75 20.0083 35.5217 19.4572 35.1154 19.0509C34.7091 18.6445 34.158 18.4163 33.5833 18.4163H18.4167C17.842 18.4163 17.2909 18.6445 16.8846 19.0509C16.4783 19.4572 16.25 20.0083 16.25 20.5829Z" stroke="white" stroke-width="1.77273" stroke-linecap="round" stroke-linejoin="round"/>
<path d="M27.0835 18.4163V20.5829" stroke="white" stroke-width="1.77273" stroke-linecap="round" stroke-linejoin="round"/>
<path d="M27.0835 31.4163V33.5829" stroke="white" stroke-width="1.77273" stroke-linecap="round" stroke-linejoin="round"/>
<path d="M27.0835 24.9163V27.0829" stroke="white" stroke-width="1.77273" stroke-linecap="round" stroke-linejoin="round"/>
</svg>
