<svg width="20" height="20" viewBox="0 0 20 20" fill="none" xmlns="http://www.w3.org/2000/svg">
<path d="M10.8334 12.2916H1.66675C1.32508 12.2916 1.04175 12.0083 1.04175 11.6666V6.34992C1.04175 6.08325 1.20841 5.8499 1.45007 5.75823C1.70007 5.66656 1.97509 5.74159 2.14175 5.94159C2.65009 6.54992 3.44175 6.89158 4.22509 6.86658C4.89175 6.84991 5.5084 6.59993 5.97507 6.15826C6.19173 5.97493 6.36674 5.75825 6.50007 5.51658C6.7584 5.07491 6.88341 4.59157 6.87508 4.0999C6.85841 3.33324 6.5251 2.63324 5.95844 2.12491C5.75843 1.94991 5.69175 1.67489 5.78342 1.43323C5.87508 1.19156 6.10843 1.0249 6.36676 1.0249H12.5001C12.8417 1.0249 13.1251 1.30824 13.1251 1.6499V9.98324C13.1251 11.2666 12.1001 12.2916 10.8334 12.2916ZM2.29175 11.0416H10.8334C11.4084 11.0416 11.8751 10.5749 11.8751 9.99992V2.29159H7.65842C7.95008 2.83325 8.10841 3.4416 8.12508 4.07493C8.14175 4.79993 7.9584 5.51658 7.59174 6.14158C7.39174 6.49991 7.11674 6.84159 6.81674 7.09159C6.15007 7.72493 5.2334 8.09992 4.2584 8.12492C3.5584 8.14992 2.88342 7.97492 2.30009 7.65825V11.0416H2.29175Z" fill="#12B76A"/>
<path d="M15.8334 17.2917H15.0001C14.6584 17.2917 14.3751 17.0084 14.3751 16.6667C14.3751 16.0917 13.9084 15.6251 13.3334 15.6251C12.7584 15.6251 12.2917 16.0917 12.2917 16.6667C12.2917 17.0084 12.0084 17.2917 11.6667 17.2917H8.33342C7.99175 17.2917 7.70842 17.0084 7.70842 16.6667C7.70842 16.0917 7.24175 15.6251 6.66675 15.6251C6.09175 15.6251 5.62508 16.0917 5.62508 16.6667C5.62508 17.0084 5.34175 17.2917 5.00008 17.2917H4.16675C2.44175 17.2917 1.04175 15.8917 1.04175 14.1667V11.6667C1.04175 11.3251 1.32508 11.0417 1.66675 11.0417H10.8334C11.4084 11.0417 11.8751 10.5751 11.8751 10.0001V4.16675C11.8751 3.82508 12.1584 3.54175 12.5001 3.54175H14.0334C14.8584 3.54175 15.6167 3.98343 16.0251 4.70009L17.4501 7.19175C17.5584 7.38342 17.5584 7.62508 17.4501 7.81675C17.3418 8.00842 17.1334 8.12508 16.9084 8.12508H15.8334C15.7167 8.12508 15.6251 8.21675 15.6251 8.33341V10.8334C15.6251 10.9501 15.7167 11.0417 15.8334 11.0417H18.3334C18.6751 11.0417 18.9584 11.3251 18.9584 11.6667V14.1667C18.9584 15.8917 17.5584 17.2917 15.8334 17.2917ZM15.5418 16.0417H15.8334C16.8667 16.0417 17.7084 15.2001 17.7084 14.1667V12.2917H15.8334C15.0334 12.2917 14.3751 11.6334 14.3751 10.8334V8.33341C14.3751 7.53341 15.0251 6.87508 15.8334 6.87508L14.9417 5.31675C14.7584 4.99175 14.4084 4.79175 14.0334 4.79175H13.1251V10.0001C13.1251 11.2667 12.1001 12.2917 10.8334 12.2917H2.29175V14.1667C2.29175 15.2001 3.13341 16.0417 4.16675 16.0417H4.45839C4.73339 15.0834 5.61675 14.3751 6.66675 14.3751C7.71675 14.3751 8.6001 15.0834 8.8751 16.0417H11.1334C11.4084 15.0834 12.2918 14.3751 13.3418 14.3751C14.3918 14.3751 15.2668 15.0834 15.5418 16.0417Z" fill="#12B76A"/>
<path d="M6.66667 18.9583C5.4 18.9583 4.375 17.9333 4.375 16.6667C4.375 15.4 5.4 14.375 6.66667 14.375C7.93333 14.375 8.95833 15.4 8.95833 16.6667C8.95833 17.9333 7.93333 18.9583 6.66667 18.9583ZM6.66667 15.625C6.09167 15.625 5.625 16.0917 5.625 16.6667C5.625 17.2417 6.09167 17.7083 6.66667 17.7083C7.24167 17.7083 7.70833 17.2417 7.70833 16.6667C7.70833 16.0917 7.24167 15.625 6.66667 15.625Z" fill="#12B76A"/>
<path d="M13.3334 18.9583C12.0667 18.9583 11.0417 17.9333 11.0417 16.6667C11.0417 15.4 12.0667 14.375 13.3334 14.375C14.6001 14.375 15.6251 15.4 15.6251 16.6667C15.6251 17.9333 14.6001 18.9583 13.3334 18.9583ZM13.3334 15.625C12.7584 15.625 12.2917 16.0917 12.2917 16.6667C12.2917 17.2417 12.7584 17.7083 13.3334 17.7083C13.9084 17.7083 14.3751 17.2417 14.3751 16.6667C14.3751 16.0917 13.9084 15.625 13.3334 15.625Z" fill="#12B76A"/>
<path d="M18.3333 12.2917H15.8333C15.0333 12.2917 14.375 11.6333 14.375 10.8333V8.33333C14.375 7.53333 15.0333 6.875 15.8333 6.875H16.9083C17.1333 6.875 17.3417 6.99167 17.45 7.19167L18.875 9.69167C18.925 9.78334 18.9583 9.89167 18.9583 10V11.6667C18.9583 12.0083 18.675 12.2917 18.3333 12.2917ZM15.8333 8.125C15.7167 8.125 15.625 8.21667 15.625 8.33333V10.8333C15.625 10.95 15.7167 11.0417 15.8333 11.0417H17.7083V10.1667L16.5416 8.125H15.8333Z" fill="#12B76A"/>
<path d="M4.1585 8.12492C3.0085 8.12492 1.92517 7.6249 1.19184 6.7499C1.07517 6.6249 0.950184 6.4499 0.841851 6.28323C0.450184 5.69157 0.233518 4.99157 0.216851 4.25824C0.183518 3.04157 0.700194 1.8999 1.63353 1.1249C2.34186 0.541565 3.19182 0.224919 4.09182 0.208252C5.07515 0.216585 6.05853 0.541587 6.79186 1.19992C7.6252 1.93325 8.10852 2.95826 8.13352 4.07493C8.15018 4.79993 7.96684 5.51658 7.60017 6.14158C7.40017 6.49991 7.12518 6.84159 6.82518 7.09159C6.15851 7.72493 5.24184 8.09992 4.26684 8.12492C4.22517 8.12492 4.19183 8.12492 4.1585 8.12492ZM4.1585 1.45825C4.14183 1.45825 4.12517 1.45825 4.1085 1.45825C3.50017 1.46659 2.91682 1.69159 2.42515 2.09159C1.79182 2.61659 1.44184 3.39992 1.45851 4.22492C1.47518 4.72492 1.61685 5.19994 1.88352 5.5916C1.95852 5.70827 2.0335 5.81657 2.12517 5.91656C2.6585 6.5499 3.45018 6.88324 4.22518 6.86658C4.89185 6.84991 5.50849 6.59993 5.97516 6.15826C6.19183 5.97493 6.36683 5.75825 6.50017 5.51658C6.7585 5.07491 6.88351 4.59157 6.87518 4.0999C6.85851 3.33324 6.5252 2.63324 5.95853 2.12491C5.45853 1.69991 4.82517 1.45825 4.1585 1.45825Z" fill="#12B76A"/>
<path d="M3.70831 5.6249C3.54998 5.6249 3.39996 5.56655 3.27496 5.44988L2.43329 4.64991C2.18329 4.40825 2.17499 4.01658 2.41666 3.76658C2.65832 3.51658 3.04999 3.50823 3.29999 3.7499L3.70831 4.14154L5.01665 2.87491C5.26665 2.63324 5.65832 2.64154 5.89998 2.89154C6.14165 3.14154 6.1333 3.53326 5.8833 3.77492L4.14161 5.45822C4.01661 5.56655 3.85831 5.6249 3.70831 5.6249Z" fill="#12B76A"/>
</svg>
