<svg width="271" height="141" viewBox="0 0 271 141" fill="none" xmlns="http://www.w3.org/2000/svg">
<g clip-path="url(#clip0_1_7209)">
<path d="M42.5301 141L42.2564 120.016L0.290336 120.574L0 98.6658L48.9092 33.9739L65.5414 33.749L66.3792 97.6333L79.8093 97.4584L80.0997 119.516L66.6695 119.691L66.9433 140.675L42.5301 141ZM24.1062 98.1912L44.8611 97.9164L44.5044 70.8039L24.1062 98.1912Z" fill="white"/>
<path d="M233.431 141L233.157 120.016L191.191 120.574L190.9 98.6658L239.81 33.9739L256.442 33.749L257.28 97.6333L270.71 97.4584L271 119.516L257.57 119.691L257.844 140.675L233.431 141ZM215.007 98.1912L235.762 97.9164L235.405 70.8039L215.007 98.1912Z" fill="white"/>
<path d="M174.707 87.4495C174.707 94.1943 173.687 100.398 171.655 106.06C169.614 111.731 166.819 116.635 163.26 120.766C159.701 124.904 155.504 128.118 150.668 130.416C145.831 132.715 140.564 133.864 134.873 133.864C129.174 133.864 123.882 132.715 119.004 130.416C114.118 128.118 109.896 124.904 106.337 120.766C102.779 116.627 99.9997 111.723 98.0171 106.06C96.0345 100.39 95.0391 94.186 95.0391 87.4495C95.0391 80.7047 96.0345 74.5011 98.0171 68.8388C99.9997 63.1681 102.77 58.2636 106.337 54.1334C109.896 49.9949 114.118 46.7557 119.004 44.4076C123.89 42.0594 129.174 40.8853 134.873 40.8853C140.572 40.8853 145.84 42.0594 150.668 44.4076C155.495 46.7557 159.693 50.0033 163.26 54.1334C166.819 58.2719 169.622 63.1765 171.655 68.8388C173.687 74.5094 174.707 80.713 174.707 87.4495ZM150.137 87.4495C150.137 80.305 148.71 74.5011 145.865 70.0628C143.011 65.6163 139.353 63.4013 134.873 63.4013C130.195 63.4013 126.453 65.6246 123.658 70.0628C120.854 74.5094 119.46 80.305 119.46 87.4495C119.46 94.6023 120.854 100.373 123.658 104.761C126.453 109.158 130.195 111.348 134.873 111.348C139.353 111.348 143.011 109.149 145.865 104.761C148.71 100.373 150.137 94.6023 150.137 87.4495Z" fill="white"/>
<path d="M97.2785 24.2894C95.5365 24.2894 93.9521 23.948 92.5336 23.2652C91.1151 22.5824 89.8957 21.6748 88.8836 20.5423C87.8633 19.4099 87.0753 18.1192 86.5195 16.6536C85.9637 15.1964 85.6816 13.7059 85.6816 12.1821C85.6816 10.5916 85.9803 9.0678 86.5692 7.61058C87.1582 6.15337 87.9794 4.86269 89.0164 3.73856C90.0533 2.61442 91.2893 1.72344 92.7161 1.06561C94.1429 0.407784 95.7024 0.074707 97.378 0.074707C99.0952 0.074707 100.671 0.424438 102.09 1.13223C103.508 1.84002 104.719 2.76431 105.723 3.9051C106.727 5.04589 107.507 6.35322 108.071 7.81043C108.627 9.26764 108.909 10.7498 108.909 12.2487C108.909 13.8391 108.618 15.363 108.038 16.8035C107.457 18.2524 106.652 19.5264 105.624 20.6339C104.595 21.7414 103.367 22.6324 101.94 23.2902C100.505 23.9564 98.9542 24.2894 97.2785 24.2894ZM90.3768 12.1737C90.3768 13.2063 90.5344 14.2055 90.8496 15.1714C91.1648 16.1374 91.6128 16.9867 92.2101 17.7278C92.799 18.4689 93.529 19.0601 94.3917 19.5098C95.2544 19.9594 96.225 20.1843 97.32 20.1843C98.4399 20.1843 99.427 19.9511 100.281 19.4931C101.144 19.0351 101.866 18.4189 102.463 17.6612C103.052 16.8951 103.5 16.0374 103.807 15.0882C104.106 14.1389 104.263 13.1646 104.263 12.1821C104.263 11.1495 104.097 10.1503 103.774 9.18437C103.45 8.21845 102.994 7.3691 102.397 6.62801C101.808 5.88691 101.078 5.2957 100.215 4.86269C99.3523 4.42969 98.3901 4.20487 97.32 4.20487C96.2001 4.20487 95.213 4.43802 94.3337 4.896C93.4627 5.35398 92.7327 5.96185 92.152 6.71127C91.5713 7.4607 91.1317 8.31837 90.8247 9.26764C90.5261 10.2169 90.3768 11.1912 90.3768 12.1737Z" fill="white"/>
<path d="M120.132 24.4563C118.705 24.4563 117.42 24.2064 116.275 23.7152C115.138 23.2239 114.168 22.5577 113.38 21.7167C112.583 20.8757 111.978 19.9097 111.555 18.8106C111.132 17.7114 110.916 16.554 110.916 15.3466C110.916 14.1142 111.132 12.9484 111.555 11.8493C111.978 10.7501 112.592 9.7842 113.38 8.94317C114.176 8.10215 115.138 7.436 116.275 6.94471C117.411 6.45342 118.697 6.20361 120.132 6.20361C121.559 6.20361 122.845 6.45342 123.973 6.94471C125.101 7.436 126.063 8.10215 126.851 8.94317C127.648 9.7842 128.253 10.7501 128.676 11.8493C129.099 12.9484 129.315 14.1142 129.315 15.3466C129.315 16.554 129.099 17.7114 128.676 18.8106C128.253 19.9097 127.648 20.8757 126.868 21.7167C126.088 22.5577 125.126 23.2239 123.989 23.7152C122.845 24.2064 121.559 24.4563 120.132 24.4563ZM115.537 15.3383C115.537 16.121 115.653 16.8371 115.885 17.4783C116.117 18.1195 116.441 18.669 116.855 19.1437C117.27 19.6183 117.751 19.9764 118.315 20.2345C118.871 20.4926 119.477 20.6175 120.124 20.6175C120.771 20.6175 121.376 20.4926 121.932 20.2345C122.488 19.9764 122.977 19.61 123.392 19.1437C123.807 18.669 124.13 18.1111 124.363 17.4616C124.595 16.8121 124.711 16.096 124.711 15.305C124.711 14.5472 124.595 13.8394 124.363 13.1899C124.13 12.5404 123.807 11.9825 123.392 11.5079C122.977 11.0332 122.496 10.6752 121.932 10.417C121.376 10.1589 120.771 10.034 120.124 10.034C119.477 10.034 118.871 10.1672 118.315 10.4337C117.76 10.7002 117.27 11.0749 116.855 11.5412C116.441 12.0158 116.117 12.5737 115.885 13.2232C115.653 13.8727 115.537 14.5805 115.537 15.3383Z" fill="white"/>
<path d="M142.845 24.4563C141.459 24.4563 140.256 24.1482 139.228 23.532C138.199 22.9158 137.395 22.0831 136.814 21.0256V31.2844H132.326V6.49508H136.25V9.52609C136.897 8.49355 137.735 7.68583 138.763 7.08629C139.792 6.49508 140.978 6.19531 142.314 6.19531C143.5 6.19531 144.595 6.43679 145.599 6.91976C146.602 7.40272 147.473 8.05222 148.195 8.86826C148.925 9.6843 149.489 10.6502 149.904 11.7577C150.319 12.8652 150.526 14.0393 150.526 15.2717C150.526 16.5457 150.335 17.7531 149.954 18.8689C149.572 19.993 149.041 20.9673 148.361 21.7917C147.681 22.6244 146.868 23.2739 145.931 23.7402C144.993 24.2231 143.965 24.4563 142.845 24.4563ZM141.343 20.6176C142.015 20.6176 142.629 20.476 143.201 20.1762C143.774 19.8848 144.255 19.4934 144.661 19.0021C145.059 18.5108 145.375 17.9363 145.599 17.2868C145.823 16.6373 145.931 15.9628 145.931 15.2717C145.931 14.5306 145.806 13.8394 145.566 13.2066C145.317 12.5654 144.977 12.0158 144.545 11.5412C144.106 11.0666 143.6 10.7002 143.002 10.4337C142.413 10.1673 141.766 10.034 141.078 10.034C140.655 10.034 140.215 10.109 139.767 10.2505C139.319 10.4004 138.904 10.6003 138.523 10.8751C138.141 11.1415 137.801 11.4579 137.502 11.816C137.204 12.1741 136.972 12.5654 136.814 12.9901V17.1286C137.22 18.1361 137.834 18.9772 138.655 19.635C139.485 20.2928 140.381 20.6176 141.343 20.6176Z" fill="white"/>
<path d="M160.206 24.4564C158.73 24.4564 157.295 24.2232 155.884 23.7486C154.474 23.2739 153.271 22.6078 152.268 21.7335L153.943 18.9106C155.013 19.6767 156.059 20.2513 157.079 20.6426C158.099 21.034 159.103 21.2338 160.115 21.2338C161.011 21.2338 161.708 21.0673 162.222 20.7259C162.736 20.3928 162.993 19.9099 162.993 19.277C162.993 18.6525 162.695 18.1862 162.089 17.8947C161.484 17.6033 160.505 17.2702 159.144 16.8872C158.008 16.5708 157.037 16.271 156.233 15.9795C155.428 15.6881 154.781 15.355 154.292 14.9886C153.802 14.6223 153.446 14.1892 153.222 13.7146C152.998 13.2317 152.89 12.6571 152.89 11.9826C152.89 11.0833 153.064 10.2756 153.412 9.55947C153.761 8.84336 154.242 8.22716 154.872 7.72755C155.494 7.2196 156.233 6.83657 157.071 6.5701C157.908 6.30364 158.821 6.17041 159.8 6.17041C161.119 6.17041 162.355 6.36193 163.499 6.74497C164.653 7.12801 165.706 7.7442 166.668 8.59355L164.86 11.3165C163.964 10.642 163.101 10.1507 162.263 9.83426C161.426 9.51784 160.596 9.35963 159.767 9.35963C159.003 9.35963 158.373 9.51784 157.859 9.83426C157.344 10.1507 157.087 10.6503 157.087 11.3498C157.087 11.6662 157.145 11.9243 157.27 12.1242C157.394 12.324 157.585 12.5072 157.859 12.6654C158.124 12.8236 158.481 12.9735 158.912 13.1234C159.352 13.2733 159.891 13.4232 160.538 13.5814C161.741 13.8978 162.778 14.2059 163.64 14.5223C164.503 14.8388 165.2 15.1968 165.747 15.5965C166.295 15.9962 166.693 16.4625 166.959 16.9954C167.216 17.52 167.34 18.1529 167.34 18.894C167.34 20.6176 166.701 21.9833 165.432 22.9825C164.13 23.9567 162.396 24.4564 160.206 24.4564Z" fill="white"/>
<path d="M171.098 15.1384V0H175.585V15.1384H171.098ZM171.098 24.1148V19.0354H175.585V24.1148H171.098Z" fill="white"/>
</g>
<defs>
<clipPath id="clip0_1_7209">
<rect width="271" height="141" fill="white"/>
</clipPath>
</defs>
</svg>
