<svg xmlns="http://www.w3.org/2000/svg" width="22" height="22" viewBox="0 0 22 22" fill="none">
<path d="M11 3C9.94943 3 8.90914 3.20693 7.93853 3.60896C6.96793 4.011 6.08601 4.60028 5.34315 5.34315C3.84285 6.84344 3 8.87827 3 11C3 13.1217 3.84285 15.1566 5.34315 16.6569C6.08601 17.3997 6.96793 17.989 7.93853 18.391C8.90914 18.7931 9.94943 19 11 19C13.1217 19 15.1566 18.1571 16.6569 16.6569C18.1571 15.1566 19 13.1217 19 11C19 9.94943 18.7931 8.90914 18.391 7.93853C17.989 6.96793 17.3997 6.08601 16.6569 5.34315C15.914 4.60028 15.0321 4.011 14.0615 3.60896C13.0909 3.20693 12.0506 3 11 3ZM14.36 14.36L10.2 11.8V7H11.4V11.16L15 13.32L14.36 14.36Z" fill="#4B4B4B"/>
</svg>