<svg width="52" height="52" viewBox="0 0 52 52" fill="none" xmlns="http://www.w3.org/2000/svg">
<circle cx="26" cy="26" r="26" fill="#1D1D1D" fill-opacity="0.4"/>
<g clip-path="url(#clip0_29_2058)">
<path d="M25.6979 13C26.0703 13.0958 26.4539 13.1452 26.817 13.2833C28.6505 13.9802 29.8169 15.6476 29.8514 17.6306C29.8585 18.0351 29.8677 18.4403 29.8472 18.8434C29.8345 19.0915 29.898 19.1725 30.161 19.169C31.2251 19.1528 32.2899 19.1669 33.3541 19.1584C33.5466 19.157 33.6058 19.2084 33.6171 19.4058C33.7525 21.8715 33.8992 24.3366 34.0374 26.8023C34.0458 26.9588 34.0874 27.0095 34.2525 27.0067C37.5379 26.9524 40.2169 29.0799 40.8727 32.2567C41.5976 35.7676 39.152 39.339 35.6191 39.902C33.2173 40.2847 31.1983 39.5476 29.568 37.7506C29.4537 37.6244 29.3345 37.6202 29.1935 37.6202C26.1499 37.6209 23.1064 37.6252 20.0628 37.6188C18.156 37.6153 16.5884 36.406 16.116 34.6097C15.9256 33.886 16.0186 33.1594 16.0595 32.4336C16.1688 30.4858 16.2894 28.538 16.4044 26.5909C16.5461 24.178 16.69 21.7658 16.8218 19.3522C16.8331 19.1408 16.9424 19.1619 17.0764 19.1619C18.1497 19.1626 19.223 19.1549 20.2963 19.1683C20.5297 19.1711 20.5875 19.1105 20.5882 18.8779C20.5889 18.0894 20.5226 17.2966 20.7201 16.5165C21.1834 14.6871 22.6875 13.3213 24.552 13.05C24.6035 13.0423 24.6592 13.0486 24.6959 13C25.0294 13 25.3637 13 25.6979 13ZM24.064 36.0382C25.4448 36.0382 26.8255 36.0346 28.2063 36.0417C28.4249 36.0431 28.4792 36.0072 28.3931 35.7809C27.9573 34.6372 27.8381 33.454 28.0977 32.2588C28.6089 29.9009 30.0052 28.2759 32.2568 27.3985C32.4437 27.3259 32.4846 27.2421 32.4712 27.0553C32.4204 26.3541 32.3887 25.6522 32.3485 24.9504C32.273 23.6347 32.194 22.319 32.1235 21.0026C32.1129 20.8088 32.0572 20.7334 31.8464 20.7391C31.266 20.7546 30.6857 20.7553 30.1053 20.7391C29.8846 20.7327 29.8444 20.8145 29.8493 21.0104C29.8613 21.5022 29.8458 21.9948 29.8571 22.4867C29.8613 22.6735 29.7985 22.7291 29.6166 22.7228C29.2478 22.7108 28.8776 22.7066 28.5088 22.7242C28.2993 22.7341 28.2613 22.653 28.2655 22.4663C28.2768 21.9744 28.2598 21.4818 28.2739 20.9899C28.2796 20.7898 28.2161 20.7398 28.0208 20.7405C26.1478 20.7475 24.2742 20.7482 22.4012 20.7398C22.1918 20.7391 22.1558 20.8109 22.16 20.997C22.1713 21.5065 22.1593 22.0167 22.1671 22.5262C22.1692 22.6742 22.1248 22.7256 21.9739 22.7221C21.5783 22.7136 21.182 22.7129 20.7871 22.7221C20.6277 22.7256 20.5741 22.6777 20.5776 22.5142C20.5868 21.9955 20.5769 21.4769 20.584 20.9589C20.5861 20.8109 20.5635 20.7376 20.3865 20.7412C19.7624 20.7517 19.1376 20.7489 18.5136 20.7426C18.3627 20.7412 18.3203 20.7982 18.3126 20.9413C18.1906 23.1083 18.0644 25.2745 17.9388 27.4415C17.8267 29.3801 17.7308 31.3195 17.5954 33.2567C17.4812 34.8902 18.5157 36.0367 20.1602 36.0389C21.4605 36.0396 22.7623 36.0382 24.064 36.0382ZM34.4915 38.425C37.1959 38.4222 39.4115 36.2094 39.4144 33.5069C39.4172 30.7952 37.1853 28.5662 34.4767 28.5746C31.7688 28.5831 29.5581 30.7931 29.556 33.4956C29.5524 36.2115 31.7716 38.4278 34.4915 38.425ZM25.1965 19.1619C26.1457 19.1619 27.0949 19.1584 28.0434 19.1654C28.2133 19.1669 28.2768 19.1218 28.2725 18.9449C28.262 18.4974 28.2789 18.0492 28.2662 17.6017C28.2218 16.0112 27.0617 14.7547 25.497 14.5933C23.9992 14.4383 22.5937 15.4587 22.244 16.9668C22.0952 17.6073 22.1946 18.262 22.16 18.9089C22.1481 19.1295 22.232 19.1676 22.4294 19.1662C23.3511 19.157 24.2735 19.1619 25.1965 19.1619Z" fill="white"/>
<path d="M32.222 32.4808C32.2988 32.5005 32.3334 32.5668 32.3792 32.6182C32.7473 33.0319 33.1218 33.4406 33.4772 33.8656C33.6203 34.0361 33.6972 34.0692 33.8707 33.8846C34.7211 32.9826 35.5948 32.1017 36.4446 31.1997C36.6188 31.015 36.7126 31.0376 36.8677 31.2025C37.1209 31.471 37.3916 31.7233 37.6624 31.9741C37.7612 32.065 37.771 32.1221 37.6716 32.225C36.36 33.5745 35.0519 34.9275 33.7473 36.2834C33.6464 36.3877 33.5914 36.3799 33.5005 36.2763C32.7227 35.3912 31.9406 34.5097 31.1607 33.6267C31.1106 33.5703 31.0338 33.5188 31.1318 33.4329C31.4759 33.1313 31.8165 32.8268 32.1592 32.5238C32.1783 32.5076 32.2015 32.4949 32.222 32.4808Z" fill="white"/>
</g>
<defs>
<clipPath id="clip0_29_2058">
<rect width="25" height="27" fill="white" transform="translate(16 13)"/>
</clipPath>
</defs>
</svg>
