<svg xmlns="http://www.w3.org/2000/svg" width="36" height="36" viewBox="0 0 36 36" fill="none">
<circle cx="18" cy="18" r="18" fill="#363636"/>
<path d="M17.7582 10.0001C17.7298 10.068 17.7429 10.1395 17.7429 10.2093C17.742 11.4523 17.7404 12.6954 17.7447 13.9384C17.7452 14.0768 17.7231 14.1345 17.5636 14.134C15.5509 14.1279 13.5383 14.13 11.5256 14.1298C11.3541 14.1298 11.3533 14.1283 11.438 13.98C12.0927 12.8336 12.7516 11.6896 13.3999 10.5394C13.5566 10.2615 13.7933 10.1082 14.0743 10C15.3022 10.0001 16.5303 10.0001 17.7582 10.0001Z" fill="white"/>
<path d="M22.3441 10C22.7192 10.115 22.9381 10.3881 23.1252 10.7224C23.7305 11.8045 24.3546 12.876 24.9706 13.9519C24.9992 14.0017 25.0423 14.046 25.0442 14.1119C24.9881 14.1453 24.928 14.1289 24.8713 14.1291C22.8842 14.13 20.8972 14.1276 18.91 14.1341C18.7418 14.1347 18.7062 14.0862 18.707 13.925C18.7135 12.6758 18.7105 11.4265 18.7112 10.1773C18.7112 10.1182 18.7201 10.0592 18.7249 10.0001C19.9313 10 21.1377 10 22.3441 10Z" fill="white"/>
<path d="M18.2083 15.1089C20.5401 15.1089 22.8718 15.1087 25.2035 15.1093C25.4476 15.1094 25.4139 15.0876 25.4139 15.3128C25.4146 18.675 25.4145 22.0371 25.4143 25.3993C25.4143 26.2234 24.9509 26.6886 24.1307 26.6886C20.1673 26.6886 16.204 26.6889 12.2406 26.6885C11.6355 26.6885 11.1987 26.3763 11.0486 25.8368C11.0136 25.7108 11.0037 25.5808 11.0037 25.4497C11.0039 22.0602 11.0049 18.6709 11 15.2816C10.9998 15.1314 11.0452 15.1058 11.1809 15.106C13.5233 15.11 15.8658 15.1089 18.2083 15.1089ZM17.5617 22.1612C17.7328 22.1663 17.8537 22.0731 17.9673 21.9584C18.7578 21.1593 19.5498 20.3617 20.3411 19.5634C20.3754 19.5289 20.4099 19.4944 20.4399 19.4562C20.5655 19.2954 20.5834 19.0771 20.4868 18.907C20.3846 18.7266 20.1896 18.6358 19.979 18.6694C19.8432 18.6911 19.748 18.7774 19.6557 18.8706C18.9903 19.5426 18.323 20.2127 17.6602 20.8873C17.5826 20.9663 17.5393 20.974 17.4591 20.8893C17.2216 20.6381 16.9777 20.3924 16.7291 20.1522C16.5248 19.9547 16.2366 19.956 16.0474 20.1429C15.8542 20.3338 15.8492 20.636 16.0501 20.843C16.434 21.2385 16.8246 21.6275 17.2135 22.018C17.3091 22.1138 17.4248 22.1652 17.5617 22.1612Z" fill="white"/>
</svg>