<svg xmlns="http://www.w3.org/2000/svg" width="36" height="36" viewBox="0 0 36 36" fill="none">
<circle cx="18" cy="18" r="18" fill="#363636"/>
<path d="M26.9988 23.424C26.9894 23.4336 26.98 23.4431 26.9706 23.4526C26.9114 23.45 26.852 23.4448 26.7928 23.4451C20.8032 23.4756 14.8136 23.5064 8.82395 23.5377C8.73148 23.5382 8.63901 23.5441 8.54644 23.5475C8.53694 23.538 8.52753 23.5286 8.51802 23.5191C8.55624 23.4569 8.53569 23.3882 8.5355 23.3232C8.53348 22.5775 8.53214 21.8317 8.52244 21.0862C8.52081 20.9581 8.55288 20.919 8.68356 20.9101C10.0927 20.8144 11.1752 19.6391 11.1636 18.2263C11.152 16.8168 10.0624 15.659 8.66474 15.5815C8.52129 15.5735 8.49296 15.5284 8.49344 15.3941C8.49613 14.6551 8.49546 13.916 8.48067 13.1773C8.47702 12.9957 8.52177 12.9484 8.70363 12.9478C11.5609 12.9393 14.4181 12.9227 17.2754 12.9081C20.4256 12.8919 23.576 12.8773 26.7263 12.8555C26.8937 12.8543 26.9324 12.8958 26.9311 13.0624C26.9247 13.8079 26.9309 14.5537 26.9412 15.2994C26.943 15.4341 26.914 15.4769 26.7716 15.4885C25.7935 15.5682 25.055 16.0474 24.6033 16.9212C23.7097 18.6501 24.8747 20.6984 26.8068 20.8165C26.9375 20.8246 26.97 20.8633 26.9696 20.9912C26.9674 21.7369 26.9736 22.4826 26.9792 23.2282C26.9798 23.2933 26.96 23.3622 26.9988 23.424ZM19.7775 16.0787C19.8036 16.0832 19.8279 16.0909 19.8523 16.0909C20.1979 16.0897 20.5435 16.0868 20.8891 16.0858C20.9843 16.0855 20.97 16.0175 20.9698 15.959C20.9688 15.6372 20.9634 15.3153 20.9672 14.9936C20.9683 14.8943 20.9328 14.8689 20.84 14.8706C20.521 14.8766 20.2018 14.8792 19.8828 14.8745C19.7793 14.8729 19.7629 14.9163 19.7644 15.0061C19.77 15.3278 19.7691 15.6497 19.7711 15.9714C19.7713 16.0045 19.7749 16.0378 19.7775 16.0787ZM20.9677 18.5099C20.9726 18.4814 20.9806 18.4561 20.9806 18.431C20.98 18.0826 20.9774 17.7341 20.977 17.3857C20.9769 17.2917 20.9121 17.3012 20.8526 17.3015C20.5337 17.3026 20.2149 17.3081 19.8961 17.304C19.7983 17.3027 19.7734 17.335 19.7758 17.4305C19.7833 17.7453 19.7862 18.0603 19.7811 18.3751C19.7793 18.4879 19.8108 18.525 19.9258 18.5215C20.2312 18.5122 20.5369 18.516 20.8425 18.5142C20.8822 18.5139 20.9218 18.5115 20.9677 18.5099ZM20.985 20.9331C20.9885 20.8869 20.9942 20.8486 20.9941 20.8102C20.9932 20.4886 20.9872 20.1668 20.992 19.8453C20.9935 19.7407 20.9502 19.7265 20.8622 19.7281C20.5501 19.7339 20.2377 19.7367 19.9255 19.7327C19.8244 19.7313 19.7853 19.7566 19.7881 19.8662C19.7965 20.1877 19.7992 20.5095 19.793 20.8311C19.791 20.9384 19.8356 20.9497 19.9214 20.9484C20.2336 20.9438 20.5459 20.9447 20.8582 20.9425C20.8968 20.9422 20.9354 20.9369 20.985 20.9331Z" fill="white"/>
</svg>