<svg width="388" height="318" viewBox="0 0 388 318" fill="none"
    xmlns="http://www.w3.org/2000/svg">
    <g clip-path="url(#clip0_1_7150)">
        <path d="M194 318C301.143 318 388 312.931 388 306.677C388 300.424 301.143 295.354 194 295.354C86.8568 295.354 0 300.424 0 306.677C0 312.931 86.8568 318 194 318Z" fill="#1D1D1D"/>
        <path d="M304.664 153.459C304.544 153.459 304.424 153.459 304.304 153.449C277.658 151.268 259.308 128.492 258.538 127.522C257.007 125.592 257.327 122.781 259.258 121.241C261.189 119.71 264.001 120.03 265.532 121.961C265.742 122.231 281.441 141.576 303.183 144.336C310.237 137.345 316.17 118.85 315.52 113.249C315.51 113.199 315.51 113.148 315.51 113.088C315.36 111.288 315.03 105.126 316.801 101.446C317.871 99.225 320.543 98.2848 322.764 99.355C324.985 100.425 325.926 103.096 324.855 105.317C324.415 106.237 324.205 109.558 324.415 112.308C325.405 121.511 317.431 144.736 307.405 152.508C306.615 153.129 305.654 153.459 304.664 153.459Z" fill="#7D7D7D"/>
        <path d="M92.7633 129.213C84.8288 129.213 62.3661 127.262 44.1758 106.927C42.765 105.347 42.6549 102.986 43.9156 101.286C51.1397 91.5731 63.8869 68.6373 65.8781 61.1654C65.0576 59.7451 63.5768 57.7046 61.7357 56.8343C60.3149 56.1642 59.3444 54.7938 59.1843 53.2334L58.4639 45.9116C58.2237 43.451 60.0147 41.2704 62.4761 41.0304C64.9275 40.7903 67.1188 42.5808 67.3589 45.0414L67.8592 50.1327C72.2217 53.2634 74.4029 58.1447 74.673 58.7748C74.9732 59.485 75.0833 60.2652 75.0032 61.0354C74.0827 68.9774 61.2054 91.9432 53.2809 103.556C71.7814 121.991 93.8939 120.31 94.8645 120.22C97.3059 120.02 99.4871 121.821 99.7072 124.271C99.9274 126.722 98.1264 128.892 95.675 129.123C95.4648 129.133 94.4343 129.213 92.7633 129.213Z" fill="#7D7D7D"/>
        <path d="M236.885 306.537H224.908C223.507 306.537 222.196 305.887 221.346 304.777C220.505 303.666 220.225 302.226 220.595 300.876C223.727 289.633 225.268 280.491 226.419 266.157C222.176 246.202 218.184 227.937 218.144 227.747C217.614 225.337 219.145 222.956 221.556 222.426C223.967 221.896 226.349 223.426 226.879 225.837C226.919 226.027 231.001 244.702 235.304 264.927C235.394 265.347 235.424 265.777 235.384 266.207C234.373 279.07 233.073 287.962 230.701 297.595H236.885C239.356 297.595 241.357 299.595 241.357 302.066C241.357 304.537 239.356 306.537 236.885 306.537Z" fill="#7D7D7D"/>
        <path d="M144.293 306.537H137.529C136.238 306.537 135.007 305.977 134.157 304.997C133.306 304.027 132.926 302.726 133.106 301.446C134.257 293.244 140.15 278.31 146.414 263.296C148.645 243.491 150.476 226.487 150.496 226.317C150.756 223.866 152.958 222.076 155.419 222.356C157.87 222.616 159.651 224.817 159.381 227.277C159.361 227.447 157.49 244.842 155.229 264.937C155.179 265.357 155.079 265.767 154.909 266.157C150.466 276.79 145.413 289.313 143.102 297.605H144.303C146.774 297.605 148.775 299.605 148.775 302.076C148.775 304.547 146.764 306.537 144.293 306.537Z" fill="#7D7D7D"/>
        <path d="M148.185 1.34033L96.0954 53.4234C93.4739 111.148 93.694 171.783 96.0954 234.659H268.353C264.941 153.529 264.621 75.439 268.353 1.35033H148.185V1.34033Z" fill="white"/>
        <path d="M268.352 235.549H96.0947C95.6144 235.549 95.2242 235.169 95.2042 234.689C92.7028 169.413 92.7028 108.407 95.2042 53.3835C95.2142 53.1635 95.3042 52.9534 95.4643 52.7934L147.564 0.710261C147.734 0.540218 147.954 0.450195 148.194 0.450195H268.362C268.603 0.450195 268.843 0.550221 269.013 0.730266C269.183 0.910311 269.273 1.15037 269.263 1.39043C265.671 72.7484 265.671 149.048 269.263 234.619C269.273 234.859 269.183 235.099 269.013 235.279C268.823 235.449 268.593 235.549 268.352 235.549ZM96.9452 233.759H267.412C263.87 148.878 263.87 73.1285 267.402 2.23064H148.554L96.9652 53.8136C94.4938 108.457 94.4938 168.993 96.9452 233.759Z" fill="#1D1D1D"/>
        <path d="M146.824 177.815L148.705 177.655C148.835 178.405 149.065 179.035 149.416 179.515C149.766 179.995 150.286 180.395 150.987 180.685C151.687 180.985 152.467 181.135 153.328 181.135C154.088 181.135 154.759 181.025 155.329 180.795C155.899 180.565 156.32 180.255 156.59 179.865C156.86 179.465 156.98 179.035 156.96 178.575C156.94 178.105 156.78 177.685 156.49 177.335C156.2 176.984 155.729 176.684 155.089 176.444C154.679 176.284 153.768 176.044 152.367 175.704C150.967 175.374 149.976 175.054 149.406 174.764C148.665 174.384 148.105 173.914 147.725 173.354C147.345 172.793 147.134 172.163 147.104 171.473C147.064 170.713 147.254 170.003 147.655 169.333C148.055 168.672 148.665 168.162 149.476 167.822C150.286 167.482 151.207 167.302 152.227 167.302C153.348 167.302 154.338 167.482 155.219 167.842C156.089 168.202 156.77 168.732 157.27 169.433C157.76 170.133 158.051 170.923 158.121 171.813L156.21 171.953C156.059 171.003 155.679 170.283 155.059 169.793C154.439 169.303 153.548 169.062 152.387 169.062C151.177 169.062 150.306 169.282 149.776 169.723C149.246 170.163 148.995 170.703 149.025 171.323C149.055 171.863 149.266 172.313 149.676 172.663C150.076 173.013 151.097 173.374 152.738 173.744C154.378 174.114 155.509 174.434 156.129 174.704C157.03 175.114 157.7 175.624 158.151 176.244C158.601 176.864 158.841 177.585 158.881 178.395C158.921 179.195 158.721 179.955 158.301 180.665C157.87 181.376 157.24 181.926 156.4 182.326C155.559 182.716 154.599 182.916 153.518 182.916C152.147 182.916 150.997 182.716 150.056 182.316C149.116 181.916 148.355 181.316 147.795 180.515C147.224 179.725 146.904 178.825 146.824 177.815Z" fill="#1D1D1D"/>
        <path d="M168.896 179.145L170.827 179.385C170.577 180.505 170.057 181.376 169.276 181.986C168.486 182.606 167.455 182.916 166.185 182.916C164.584 182.916 163.293 182.426 162.303 181.436C161.322 180.445 160.782 179.065 160.702 177.295C160.612 175.454 161.022 174.024 161.922 173.014C162.823 171.993 164.024 171.493 165.534 171.493C166.995 171.493 168.216 171.993 169.186 172.984C170.157 173.984 170.687 175.384 170.777 177.185C170.787 177.295 170.787 177.455 170.787 177.675H162.633C162.763 178.875 163.143 179.795 163.783 180.435C164.424 181.076 165.204 181.396 166.115 181.396C166.795 181.396 167.365 181.216 167.826 180.856C168.296 180.495 168.646 179.925 168.896 179.145ZM162.663 176.144H168.776C168.646 175.224 168.386 174.534 167.976 174.074C167.355 173.364 166.565 173.004 165.624 173.004C164.774 173.004 164.074 173.284 163.513 173.854C162.963 174.424 162.683 175.194 162.663 176.144Z" fill="#1D1D1D"/>
        <path d="M173.288 182.666L172.768 171.733H174.439L174.519 173.394C174.909 172.613 175.279 172.103 175.619 171.863C175.969 171.613 176.36 171.493 176.79 171.493C177.41 171.493 178.061 171.693 178.721 172.093L178.161 173.814C177.69 173.544 177.24 173.414 176.78 173.414C176.37 173.414 176.019 173.534 175.709 173.784C175.399 174.024 175.189 174.364 175.069 174.794C174.899 175.454 174.829 176.174 174.859 176.955L175.129 182.676H173.288V182.666Z" fill="#1D1D1D"/>
        <path d="M183.374 182.666L178.691 171.733H180.653L183.314 178.285C183.604 178.995 183.874 179.725 184.124 180.485C184.265 179.905 184.455 179.215 184.715 178.405L186.826 171.733H188.727L185.105 182.666H183.374Z" fill="#1D1D1D"/>
        <path d="M190.268 169.693L190.168 167.562H192.019L192.119 169.693H190.268ZM190.898 182.666L190.378 171.733H192.229L192.749 182.666H190.898Z" fill="#1D1D1D"/>
        <path d="M202.516 178.655L204.347 178.895C204.207 180.145 203.747 181.136 202.956 181.846C202.166 182.556 201.175 182.916 199.985 182.916C198.484 182.916 197.263 182.426 196.303 181.446C195.342 180.465 194.822 179.065 194.732 177.235C194.672 176.054 194.822 175.024 195.172 174.134C195.522 173.244 196.082 172.583 196.863 172.143C197.643 171.703 198.504 171.473 199.444 171.473C200.635 171.473 201.616 171.773 202.406 172.373C203.186 172.974 203.717 173.834 203.987 174.934L202.196 175.214C201.986 174.484 201.656 173.924 201.205 173.554C200.755 173.184 200.215 172.994 199.594 172.994C198.664 172.994 197.913 173.324 197.363 173.994C196.813 174.664 196.573 175.724 196.643 177.175C196.713 178.645 197.043 179.715 197.643 180.375C198.234 181.046 198.994 181.376 199.895 181.376C200.625 181.376 201.215 181.156 201.686 180.705C202.156 180.275 202.436 179.585 202.516 178.655Z" fill="#1D1D1D"/>
        <path d="M213.441 179.145L215.372 179.385C215.122 180.505 214.602 181.376 213.821 181.986C213.031 182.606 212 182.916 210.73 182.916C209.129 182.916 207.838 182.426 206.847 181.436C205.867 180.445 205.327 179.065 205.247 177.295C205.156 175.454 205.567 174.024 206.457 173.014C207.358 171.993 208.558 171.493 210.069 171.493C211.53 171.493 212.751 171.993 213.731 172.984C214.702 173.984 215.232 175.384 215.322 177.185C215.322 177.295 215.332 177.455 215.332 177.675H207.178C207.308 178.875 207.688 179.795 208.328 180.435C208.969 181.076 209.749 181.396 210.66 181.396C211.34 181.396 211.91 181.216 212.371 180.856C212.841 180.495 213.201 179.925 213.441 179.145ZM207.208 176.144H213.321C213.191 175.224 212.931 174.534 212.521 174.074C211.89 173.364 211.11 173.004 210.169 173.004C209.319 173.004 208.618 173.284 208.058 173.854C207.508 174.424 207.228 175.194 207.208 176.144Z" fill="#1D1D1D"/>
        <path d="M137.479 203.751L137.398 202.141C136.608 203.381 135.477 203.991 134.017 203.991C133.366 203.991 132.766 203.871 132.196 203.621C131.625 203.371 131.195 203.061 130.905 202.691C130.615 202.321 130.405 201.861 130.264 201.321C130.174 200.96 130.104 200.38 130.064 199.59L129.744 192.808H131.595L131.885 198.87C131.935 199.84 131.995 200.49 132.095 200.83C132.236 201.32 132.506 201.701 132.896 201.981C133.286 202.261 133.756 202.401 134.317 202.401C134.877 202.401 135.387 202.261 135.858 201.971C136.328 201.681 136.658 201.3 136.838 200.81C137.018 200.32 137.088 199.61 137.038 198.67L136.758 192.808H138.609L139.129 203.751H137.479Z" fill="#1D1D1D"/>
        <path d="M142.052 203.751L141.531 192.808H143.202L143.272 194.369C144.023 193.169 145.153 192.568 146.664 192.568C147.325 192.568 147.935 192.688 148.495 192.918C149.056 193.158 149.486 193.469 149.786 193.849C150.076 194.229 150.296 194.689 150.426 195.219C150.506 195.559 150.576 196.159 150.616 197.019L150.937 203.741H149.086L148.765 197.089C148.725 196.339 148.625 195.769 148.465 195.399C148.305 195.029 148.035 194.729 147.655 194.499C147.275 194.279 146.844 194.159 146.344 194.159C145.554 194.159 144.883 194.409 144.333 194.909C143.783 195.409 143.542 196.359 143.612 197.76L143.903 203.731H142.052V203.751Z" fill="#1D1D1D"/>
        <path d="M160.852 202.401C160.191 202.981 159.551 203.401 158.931 203.641C158.31 203.881 157.63 204.001 156.899 204.001C155.699 204.001 154.758 203.711 154.088 203.121C153.417 202.531 153.057 201.781 153.007 200.87C152.977 200.34 153.077 199.85 153.307 199.4C153.527 198.96 153.828 198.6 154.218 198.33C154.598 198.06 155.038 197.86 155.519 197.72C155.879 197.62 156.419 197.53 157.149 197.44C158.64 197.26 159.731 197.049 160.421 196.799C160.411 196.549 160.411 196.379 160.411 196.319C160.371 195.569 160.171 195.029 159.811 194.719C159.321 194.299 158.6 194.089 157.67 194.089C156.799 194.089 156.159 194.239 155.759 194.549C155.358 194.859 155.078 195.399 154.918 196.169L153.097 195.919C153.227 195.139 153.467 194.519 153.818 194.039C154.168 193.559 154.698 193.199 155.399 192.938C156.099 192.678 156.919 192.548 157.86 192.548C158.79 192.548 159.561 192.658 160.151 192.878C160.742 193.098 161.192 193.379 161.482 193.709C161.772 194.039 161.982 194.459 162.122 194.969C162.202 195.289 162.252 195.859 162.292 196.679L162.412 199.15C162.493 200.87 162.583 201.961 162.683 202.421C162.783 202.881 162.963 203.311 163.213 203.731H161.272C161.082 203.371 160.932 202.921 160.852 202.401ZM160.501 198.27C159.841 198.55 158.84 198.78 157.51 198.97C156.749 199.08 156.219 199.2 155.909 199.34C155.599 199.48 155.368 199.68 155.208 199.94C155.048 200.2 154.978 200.5 154.988 200.82C155.008 201.311 155.218 201.731 155.609 202.061C155.999 202.391 156.559 202.551 157.28 202.551C157.99 202.551 158.62 202.391 159.161 202.081C159.701 201.771 160.091 201.341 160.321 200.8C160.501 200.38 160.571 199.76 160.531 198.95L160.501 198.27Z" fill="#1D1D1D"/>
        <path d="M168.556 203.751L163.873 192.808H165.834L168.496 199.36C168.786 200.07 169.056 200.8 169.306 201.561C169.446 200.98 169.636 200.29 169.896 199.48L172.008 192.808H173.909L170.287 203.751H168.556Z" fill="#1D1D1D"/>
        <path d="M183.145 202.401C182.484 202.981 181.844 203.401 181.223 203.641C180.603 203.881 179.923 204.001 179.192 204.001C177.992 204.001 177.051 203.711 176.381 203.121C175.71 202.531 175.35 201.781 175.3 200.87C175.27 200.34 175.37 199.85 175.6 199.4C175.82 198.96 176.121 198.6 176.511 198.33C176.891 198.06 177.331 197.86 177.812 197.72C178.172 197.62 178.712 197.53 179.442 197.44C180.933 197.26 182.024 197.049 182.714 196.799C182.704 196.549 182.704 196.379 182.704 196.319C182.664 195.569 182.464 195.029 182.104 194.719C181.614 194.299 180.893 194.089 179.963 194.089C179.092 194.089 178.452 194.239 178.052 194.549C177.651 194.859 177.371 195.399 177.211 196.169L175.39 195.919C175.52 195.139 175.76 194.519 176.111 194.039C176.461 193.559 176.991 193.199 177.691 192.938C178.392 192.678 179.212 192.548 180.153 192.548C181.083 192.548 181.854 192.658 182.444 192.878C183.035 193.098 183.485 193.379 183.775 193.709C184.065 194.039 184.275 194.459 184.415 194.969C184.495 195.289 184.545 195.859 184.585 196.679L184.705 199.15C184.786 200.87 184.876 201.961 184.976 202.421C185.076 202.881 185.256 203.311 185.506 203.731H183.565C183.365 203.371 183.215 202.921 183.145 202.401ZM182.784 198.27C182.124 198.55 181.123 198.78 179.793 198.97C179.032 199.08 178.502 199.2 178.192 199.34C177.882 199.48 177.651 199.68 177.491 199.94C177.331 200.2 177.261 200.5 177.271 200.82C177.291 201.311 177.501 201.731 177.892 202.061C178.282 202.391 178.842 202.551 179.563 202.551C180.273 202.551 180.903 202.391 181.444 202.081C181.984 201.771 182.374 201.341 182.604 200.8C182.784 200.38 182.854 199.76 182.814 198.95L182.784 198.27Z" fill="#1D1D1D"/>
        <path d="M187.186 190.788L187.086 188.657H188.937L189.037 190.788H187.186ZM187.806 203.751L187.286 192.809H189.137L189.657 203.751H187.806Z" fill="#1D1D1D"/>
        <path d="M192.449 203.751L191.729 188.657H193.58L194.3 203.751H192.449Z" fill="#1D1D1D"/>
        <path d="M204.246 202.401C203.586 202.981 202.945 203.401 202.325 203.641C201.705 203.881 201.024 204.001 200.294 204.001C199.093 204.001 198.153 203.711 197.482 203.121C196.812 202.531 196.452 201.781 196.402 200.87C196.372 200.34 196.472 199.85 196.702 199.4C196.922 198.96 197.222 198.6 197.612 198.33C197.993 198.06 198.433 197.86 198.913 197.72C199.273 197.62 199.814 197.53 200.544 197.44C202.035 197.26 203.125 197.049 203.816 196.799C203.806 196.549 203.806 196.379 203.806 196.319C203.766 195.569 203.566 195.029 203.206 194.719C202.715 194.299 201.995 194.089 201.064 194.089C200.194 194.089 199.553 194.239 199.153 194.549C198.753 194.859 198.473 195.399 198.313 196.169L196.492 195.919C196.622 195.139 196.862 194.519 197.212 194.039C197.562 193.559 198.093 193.199 198.793 192.938C199.493 192.678 200.314 192.548 201.254 192.548C202.185 192.548 202.955 192.658 203.546 192.878C204.136 193.098 204.586 193.379 204.876 193.709C205.167 194.039 205.377 194.459 205.517 194.969C205.597 195.289 205.647 195.859 205.687 196.679L205.807 199.15C205.887 200.87 205.977 201.961 206.087 202.421C206.187 202.881 206.367 203.311 206.617 203.731H204.676C204.476 203.371 204.326 202.921 204.246 202.401ZM203.896 198.27C203.236 198.55 202.235 198.78 200.904 198.97C200.144 199.08 199.614 199.2 199.303 199.34C198.993 199.48 198.763 199.68 198.603 199.94C198.443 200.2 198.373 200.5 198.393 200.82C198.413 201.311 198.623 201.731 199.013 202.061C199.403 202.391 199.964 202.551 200.684 202.551C201.395 202.551 202.025 202.391 202.565 202.081C203.105 201.771 203.496 201.341 203.726 200.8C203.906 200.38 203.976 199.76 203.936 198.95L203.896 198.27Z" fill="#1D1D1D"/>
        <path d="M210.619 203.751H208.898L208.178 188.657H210.029L210.289 194.039C211.029 193.059 212 192.568 213.221 192.568C213.891 192.568 214.541 192.708 215.152 192.979C215.762 193.249 216.282 193.629 216.693 194.119C217.103 194.609 217.433 195.199 217.693 195.899C217.943 196.589 218.093 197.33 218.133 198.12C218.223 199.99 217.833 201.441 216.953 202.471C216.072 203.491 214.992 204.001 213.691 204.001C212.4 204.001 211.36 203.461 210.569 202.381L210.619 203.751ZM210.329 198.2C210.389 199.51 210.619 200.46 210.999 201.041C211.63 201.991 212.44 202.471 213.441 202.471C214.251 202.471 214.932 202.121 215.492 201.411C216.052 200.711 216.292 199.66 216.232 198.27C216.162 196.84 215.832 195.789 215.232 195.109C214.631 194.429 213.931 194.089 213.131 194.089C212.32 194.089 211.64 194.439 211.079 195.149C210.509 195.849 210.269 196.87 210.329 198.2Z" fill="#1D1D1D"/>
        <path d="M220.595 203.751L219.875 188.657H221.726L222.446 203.751H220.595Z" fill="#1D1D1D"/>
        <path d="M232.652 200.23L234.583 200.47C234.333 201.591 233.813 202.461 233.032 203.071C232.242 203.691 231.211 204.001 229.941 204.001C228.34 204.001 227.049 203.511 226.058 202.521C225.078 201.531 224.538 200.15 224.457 198.38C224.367 196.539 224.778 195.109 225.678 194.099C226.579 193.078 227.779 192.578 229.29 192.578C230.751 192.578 231.972 193.079 232.942 194.069C233.913 195.069 234.443 196.469 234.533 198.27C234.533 198.38 234.543 198.55 234.543 198.77H226.389C226.519 199.97 226.899 200.89 227.539 201.531C228.18 202.171 228.96 202.491 229.871 202.491C230.551 202.491 231.121 202.311 231.582 201.951C232.052 201.581 232.402 201.01 232.652 200.23ZM226.419 197.24H232.532C232.402 196.319 232.142 195.629 231.732 195.169C231.111 194.459 230.321 194.099 229.38 194.099C228.53 194.099 227.829 194.389 227.269 194.949C226.719 195.519 226.439 196.279 226.419 197.24Z" fill="#1D1D1D"/>
        <path d="M237.465 209.873H218.674C218.304 209.873 218.004 209.573 218.004 209.203C218.004 208.833 218.304 208.532 218.674 208.532H237.465C237.835 208.532 238.135 208.833 238.135 209.203C238.135 209.583 237.835 209.873 237.465 209.873Z" fill="#D3F56A"/>
        <path d="M210.891 209.873H126.973C126.603 209.873 126.303 209.573 126.303 209.203C126.303 208.833 126.603 208.532 126.973 208.532H210.891C211.261 208.532 211.561 208.833 211.561 209.203C211.561 209.583 211.261 209.873 210.891 209.873Z" fill="#D3F56A"/>
        <path d="M158.26 109.578C158.06 105.227 155.589 101.776 152.727 101.876C149.865 101.976 147.714 105.597 147.904 109.948C148.104 114.299 150.576 117.75 153.437 117.65C156.299 117.54 158.46 113.929 158.26 109.578Z" fill="#1D1D1D"/>
        <path d="M218.664 108.217C218.464 103.866 215.993 100.415 213.131 100.515C210.27 100.615 208.118 104.236 208.309 108.587C208.509 112.938 210.98 116.389 213.842 116.289C216.703 116.179 218.865 112.568 218.664 108.217Z" fill="#1D1D1D"/>
        <path d="M173.34 127.422C189.179 121.77 201.415 128.412 201.986 128.722C202.606 129.072 202.826 129.842 202.476 130.463C202.126 131.073 201.345 131.293 200.725 130.953C200.585 130.873 186.327 123.191 169.297 131.963C168.667 132.283 167.886 132.043 167.556 131.423C167.226 130.793 167.466 130.023 168.097 129.702C169.878 128.782 171.629 128.032 173.34 127.422Z" fill="#1D1D1D"/>
        <path d="M149.615 68.7172C150.046 68.7272 150.476 68.8472 150.876 69.0773C152.107 69.7975 152.517 71.3679 151.797 72.5882C144.603 84.7412 132.746 85.3414 132.246 85.3614C130.825 85.4214 129.624 84.3211 129.554 82.9108C129.484 81.5004 130.575 80.3201 131.985 80.2601C132.376 80.2401 141.611 79.6699 147.354 69.9775C147.834 69.1473 148.715 68.6972 149.615 68.7172Z" fill="#1D1D1D"/>
        <path d="M210.059 67.2568C210.88 67.0968 211.76 67.3369 212.391 67.967C220.425 75.999 229.54 74.3686 229.92 74.2886C231.311 74.0185 232.672 74.9188 232.952 76.2991C233.232 77.6795 232.352 79.0198 230.971 79.2999C230.471 79.3899 218.814 81.6204 208.748 71.5579C207.748 70.5577 207.748 68.9373 208.748 67.947C209.129 67.5769 209.579 67.3469 210.059 67.2568Z" fill="#1D1D1D"/>
        <path opacity="0.2" d="M265.76 95.244L258.456 95.9342C255.835 96.1843 253.444 94.4438 252.873 91.8732L242.737 46.4818C242.127 43.7411 243.788 41.0104 246.51 40.2902L266.111 35.1489L265.76 95.244Z" fill="#151515"/>
        <path opacity="0.2" d="M152.988 58.0746C147.895 44.1711 142.802 21.9355 148.185 1.35034L96.0957 53.4234C110.814 58.3447 134.287 60.4852 152.988 58.0746Z" fill="#151515"/>
        <path d="M148.185 53.4234C142.472 36.5592 144.803 13.6334 148.185 1.34033L96.0957 53.4234C111.865 56.2942 129.475 55.844 148.185 53.4234Z" fill="white"/>
        <path d="M119.92 56.3042C111.225 56.3042 103.27 55.634 95.9359 54.3037C95.6057 54.2436 95.3456 54.0136 95.2455 53.6935C95.1455 53.3734 95.2355 53.0333 95.4657 52.7933L147.565 0.710176C147.855 0.420103 148.296 0.370091 148.646 0.570141C148.996 0.770191 149.166 1.1903 149.056 1.5804C145.904 13.0233 143.303 36.1991 149.036 53.1334C149.126 53.3834 149.086 53.6635 148.946 53.8936C148.806 54.1236 148.566 54.2737 148.306 54.3037C138.02 55.634 128.594 56.3042 119.92 56.3042ZM97.9371 52.8333C111.775 55.1239 127.854 55.0739 146.995 52.6732C142.282 37.7395 143.353 17.9645 146.525 4.26107L97.9371 52.8333Z" fill="#1D1D1D"/>
        <path d="M327.177 129.513C326.516 129.513 325.906 129.073 325.736 128.392L307.385 58.4948C307.175 57.6946 307.655 56.8844 308.456 56.6743C309.256 56.4643 310.067 56.9444 310.277 57.7446L328.627 127.642C328.837 128.442 328.357 129.253 327.557 129.463C327.437 129.493 327.307 129.513 327.177 129.513Z" fill="#7D7D7D"/>
        <path d="M360.747 27.1441L359.779 27.3979L361.179 32.7291L362.146 32.4752L360.747 27.1441Z" fill="#D3F56A"/>
        <path d="M358.204 21.4654L354.352 6.78171C353.461 3.38085 350.38 1.00025 346.858 1.00025C346.197 1.00025 345.527 1.09027 344.886 1.25031L334.811 3.90098L334.561 2.93074L344.636 0.290073C345.357 0.100025 346.107 0 346.858 0C350.83 0 354.302 2.68067 355.312 6.52164L359.164 21.2053L358.204 21.4654Z" fill="#D3F56A">
        </path>
        <path d="M360.255 59.815L264.861 84.8413C262.059 85.5714 259.188 83.901 258.457 81.1003L246.38 35.0988C245.65 32.298 247.321 29.4273 250.122 28.6971L345.517 3.67085C348.318 2.94066 351.19 4.61108 351.92 7.41179L363.997 53.4134C364.737 56.2141 363.057 59.0748 360.255 59.815Z" fill="#D3F56A"/>
    </g>
    <defs>
        <clipPath id="clip0_1_7150">
            <rect width="388" height="318" fill="white"/>
        </clipPath>
    </defs>
</svg>
