<svg width="430" height="363" viewBox="0 0 430 363" fill="none" xmlns="http://www.w3.org/2000/svg">
<path d="M3.96955 183.015C3.22881 189.623 3.57234 196.403 5.39736 202.722C7.20092 209.008 10.5396 214.854 15.2954 218.802C16.4763 219.789 17.7217 220.669 19.0099 221.42C20.3196 222.16 21.683 222.739 23.0679 223.211C25.8377 224.155 28.7362 224.488 31.5811 224.348C37.3031 224.037 42.7997 221.881 47.8131 218.77C48.1137 218.577 48.468 218.373 48.7256 218.191L49.4449 217.654C49.9173 217.268 50.3896 216.893 50.8405 216.464C51.753 215.648 52.6333 214.726 53.4707 213.696C55.1454 211.679 56.7128 209.373 58.1192 206.852C60.9855 201.831 63.4225 196.135 65.7091 190.267C70.2609 178.456 74.2653 165.861 78.7634 153.117C79.8799 149.931 81.0501 146.723 82.2739 143.516C83.4656 140.297 84.7538 137.079 86.0957 133.85C88.8011 127.381 91.7318 120.902 95.7147 114.336C96.7238 112.695 97.8081 111.043 99.0642 109.38C99.6868 108.554 100.374 107.707 101.093 106.902C101.823 106.108 102.575 105.347 103.348 104.617C106.461 101.721 109.907 99.4999 113.353 97.7513C120.256 94.2219 127.127 92.3231 133.75 90.36C140.396 88.4719 146.88 86.6482 153.106 84.3203C159.322 82.0031 165.28 79.1818 170.67 75.6309C176.07 72.1122 180.825 67.7568 184.679 62.7792C188.512 57.7693 191.539 52.1802 192.892 46.5482C193.568 43.7376 193.869 40.9484 193.708 38.3308C193.536 35.7133 192.924 33.2781 191.894 31.1862C189.875 26.9702 186.376 24.1703 182.232 22.8186C180.16 22.1213 177.916 21.7995 175.597 21.7673C173.278 21.7566 170.874 22.0569 168.447 22.647C167.846 22.7972 167.234 22.9688 166.633 23.1512L164.475 23.7948C163.047 24.2454 161.63 24.7174 160.224 25.2431C157.422 26.2836 154.685 27.4315 151.947 28.751C146.493 31.3578 141.04 34.6512 134.996 38.1592C128.984 41.6671 122.296 45.2287 115.178 48.0823C108.05 50.8822 100.61 53.0384 93.1919 54.3901C92.2686 54.5832 91.3346 54.712 90.4114 54.8621L87.9208 55.2591C86.5466 55.4951 85.151 55.7633 83.7554 56.0636C80.9642 56.6751 78.1944 57.4368 75.4784 58.3272C64.6141 61.8888 54.8341 67.553 47.3837 75.5451C43.6263 79.5143 40.3198 84.0092 37.5178 89.0405C36.1008 91.5508 34.8018 94.1898 33.6745 96.9575C32.5044 99.7145 31.506 102.6 30.5935 105.572C29.7024 108.543 28.9295 111.611 28.3068 114.744C27.9955 116.214 27.6734 118.145 27.3406 119.883C26.9756 121.653 26.6106 123.423 26.1919 125.171C24.5065 132.166 22.3486 138.967 19.7721 145.5C17.2386 152.044 14.2863 158.33 11.3341 164.499C9.85258 167.578 8.37108 170.646 7.00768 173.725C5.66575 176.782 4.3775 179.925 3.96955 183.015ZM1.3501 182.736C1.54334 180.891 2.00496 179.174 2.52026 177.501C3.02483 175.827 3.62602 174.207 4.20573 172.598C5.38663 169.38 6.62121 166.215 7.70549 163.008C8.81124 159.811 9.7989 156.593 10.647 153.353C11.4951 150.113 12.1392 146.83 12.676 143.558C13.6851 136.993 14.0394 130.396 13.7388 123.884C13.6851 122.253 13.5563 120.633 13.4275 119.024C13.2772 117.372 13.1054 115.913 12.9551 113.993C12.6545 110.346 12.515 106.645 12.6223 102.901C12.8156 95.4127 13.9535 87.7424 16.3797 80.2223C18.7952 72.7237 22.5204 65.4182 27.4802 58.9601C32.44 52.5128 38.4948 46.9022 45.1185 42.3322C51.753 37.7515 58.9565 34.2114 66.3962 31.626C70.1107 30.328 73.9003 29.2659 77.7543 28.4399C79.6759 28.0108 81.6298 27.6675 83.6051 27.3779L88.4039 26.6806C94.3728 25.7258 100.138 24.4492 105.763 22.5397C111.421 20.716 116.939 18.2379 122.908 15.3522C128.855 12.4879 135.307 9.18375 142.349 6.43747C145.86 5.06433 149.478 3.83065 153.16 2.82225C154.996 2.31805 156.853 1.86748 158.71 1.45983L161.502 0.891265C162.554 0.708895 163.616 0.537253 164.679 0.397793C168.952 -0.13859 173.396 -0.170774 177.841 0.537252C182.275 1.21309 186.698 2.63988 190.766 4.87123C194.824 7.10258 198.507 10.16 201.384 13.8396C204.272 17.4977 206.333 21.7566 207.406 26.1227C208.501 30.4889 208.641 34.9194 208.104 39.071C207.578 43.2334 206.397 47.1489 204.808 50.732C201.577 57.9088 197.047 63.8841 191.99 69.1192C189.467 71.7582 186.719 74.1612 183.896 76.414C181.04 78.6346 178.066 80.6622 175.017 82.5073C162.768 89.8987 149.349 94.1361 137.035 99.4892C130.905 102.128 124.99 105.121 120.353 108.822C118.055 110.689 116.112 112.706 114.652 114.841C114.287 115.377 113.954 115.913 113.643 116.46C113.342 116.997 113.052 117.555 112.763 118.155C112.183 119.357 111.625 120.687 111.109 122.071C110.057 124.849 109.145 127.875 108.297 130.964C107.406 134.043 106.622 137.229 105.785 140.426L103.326 150.135C102.499 153.396 101.662 156.689 100.75 159.972C97.1103 173.124 92.8805 186.469 86.3856 199.503C83.1005 205.993 79.2572 212.441 74.1686 218.438C72.8697 219.929 71.5277 221.388 70.0677 222.804C68.6184 224.22 67.0725 225.593 65.3763 226.848C63.7016 228.114 61.898 229.294 59.9656 230.324C59.0209 230.86 58.0011 231.311 56.9919 231.751L55.4353 232.362C54.9307 232.544 54.5013 232.673 54.0289 232.834C50.3252 234.014 46.4712 234.883 42.5205 235.248C38.5806 235.623 34.5441 235.484 30.6257 234.711C26.7072 233.971 22.9391 232.512 19.5789 230.528C17.9042 229.53 16.3261 228.393 14.8875 227.116C13.4382 225.872 12.107 224.509 10.9154 223.061C6.13811 217.247 3.46499 210.37 2.11232 203.505C0.738183 196.607 0.663034 189.602 1.3501 182.736Z" fill="#1D1D1D"/>
<path d="M263.75 293.065C256.049 293.856 248.594 295.615 241.429 297.848C234.242 300.057 227.334 302.723 220.362 305.444C216.855 306.777 213.369 308.172 209.743 309.474C206.128 310.8 202.406 312.048 198.416 313.11C194.437 314.164 190.189 315.047 185.491 315.404C180.825 315.753 175.58 315.528 170.463 314.179C169.198 313.854 167.964 313.412 166.72 313.001C165.529 312.528 164.36 312.017 163.191 311.49C162.108 310.916 161.014 310.319 159.962 309.707C158.986 309.064 158.021 308.405 157.056 307.73C153.537 305.149 150.555 302.103 148.196 298.863C145.825 295.623 144.173 292.189 143.026 288.81C141.899 285.423 141.277 282.074 140.955 278.819C140.333 272.308 140.827 266.169 141.427 260.317L142.382 251.728C142.543 250.326 142.65 248.946 142.779 247.566L142.95 245.52L143.058 243.497C143.143 240.815 143.186 238.187 142.897 235.637C142.682 233.079 142.167 230.576 141.406 228.266C140.612 225.878 139.325 223.383 137.802 220.879C136.279 218.375 134.52 215.841 132.632 213.306C128.845 208.221 124.544 203.144 120.35 197.905L117.239 193.936C116.231 192.587 115.234 191.231 114.279 189.836C112.338 187.076 110.611 184.185 109.227 181.131C107.875 178.085 106.932 174.822 106.964 171.465C106.974 168.117 108.09 164.738 110.106 161.8C111.093 160.312 112.348 158.986 113.657 157.699L115.738 155.878C116.446 155.297 117.186 154.777 117.915 154.227C120.886 152.095 124.104 150.111 127.59 148.39C131.119 146.708 134.841 145.22 138.767 144.05C139.754 143.771 140.73 143.445 141.728 143.205L144.752 142.461C146.801 142.042 148.85 141.624 150.942 141.314C159.287 140.027 167.932 139.748 176.449 140.29C180.707 140.546 184.955 140.965 189.138 141.577C193.343 142.143 197.472 142.934 201.58 143.794C203.608 144.259 205.667 144.685 207.673 145.212L210.698 145.972L213.69 146.794C217.67 147.91 221.574 149.135 225.425 150.452C227.345 151.119 229.244 151.809 231.142 152.498C233.019 153.219 234.896 153.94 236.752 154.692C238.586 155.459 240.452 156.196 242.265 156.994C244.067 157.8 245.901 158.583 247.671 159.42L257.893 164.203C259.556 164.978 261.24 165.714 262.903 166.466L265.413 167.59L267.944 168.675C281.427 174.55 295.285 179.596 309.562 184.208C316.749 186.51 323.989 188.72 331.658 191.223C335.488 192.463 339.413 193.859 343.479 195.502C347.501 197.168 351.695 199.106 355.664 201.563C359.643 203.989 363.322 206.896 366.326 210.004C369.383 213.105 371.678 216.36 373.598 219.554C374.606 221.158 375.368 222.739 376.183 224.336C376.569 225.127 376.891 225.909 377.256 226.7C377.61 227.483 377.964 228.266 378.253 229.111L379.165 231.607L379.605 232.854L379.937 234.149C380.377 235.877 380.838 237.575 381.01 239.373C381.128 240.265 381.246 241.148 381.321 242.032L381.332 244.752L381.321 246.109C381.3 246.558 381.214 247.024 381.171 247.481L380.795 250.209C380.602 251.116 380.313 252.023 380.066 252.922L379.669 254.271C379.519 254.713 379.305 255.154 379.122 255.596C378.736 256.472 378.361 257.356 377.953 258.216C377.47 259.061 376.955 259.898 376.441 260.728C374.252 263.991 371.56 267.037 368.299 269.533L367.109 270.494C366.701 270.796 366.261 271.083 365.843 271.378C364.996 271.959 364.159 272.54 363.29 273.091C361.488 274.106 359.75 275.183 357.873 276.044C354.216 277.904 350.322 279.307 346.471 280.64C342.567 281.873 338.673 282.989 334.715 283.865C326.821 285.678 318.905 286.973 310.999 288.035C309.015 288.283 307.052 288.577 305.068 288.787C303.094 289.019 301.131 289.29 299.158 289.492C297.184 289.717 295.21 289.926 293.247 290.135L287.348 290.755L263.75 293.065ZM263.321 291.197C271.13 290.376 278.885 289.352 286.522 288.035L289.386 287.539L292.228 286.996C294.127 286.647 296.004 286.229 297.87 285.826C301.625 285.035 305.314 284.105 308.961 283.121C316.245 281.152 323.26 278.772 329.738 275.966C333.01 274.594 336.045 273.036 338.974 271.447C341.805 269.789 344.541 268.107 346.836 266.239C348.08 265.355 349.046 264.355 350.129 263.425L351.534 261.952C351.759 261.712 352.006 261.472 352.221 261.224L352.811 260.464C354.473 258.487 355.578 256.41 356.372 254.333C356.543 253.806 356.704 253.279 356.908 252.767L357.23 251.17C357.283 250.907 357.358 250.651 357.391 250.38L357.434 249.566C357.455 249.023 357.53 248.496 357.541 247.946L357.466 246.295C357.444 246.016 357.466 245.752 357.423 245.473L357.273 244.628L357.026 242.946L356.565 241.233C355.986 238.955 354.999 236.606 353.883 234.257C353.647 233.676 353.304 233.064 352.971 232.459C352.639 231.855 352.328 231.234 351.985 230.645C351.266 229.49 350.601 228.305 349.839 227.235C348.348 225.049 346.739 223.065 344.937 221.383C343.135 219.693 341.194 218.251 338.909 216.91C334.372 214.244 328.129 211.911 321.093 209.516C317.596 208.314 313.96 207.113 310.259 205.881C306.569 204.664 302.837 203.33 299.104 202.013C284.141 196.672 269.521 190.464 255.705 183.619L253.099 182.348L250.535 181.038C248.83 180.162 247.103 179.302 245.419 178.411L235.583 173.163C232.44 171.504 229.265 169.892 226.069 168.303L221.231 165.985C219.601 165.241 217.981 164.482 216.34 163.753C213.047 162.327 209.754 160.877 206.364 159.591L203.844 158.599L201.291 157.661C199.596 157.01 197.869 156.467 196.142 155.862C189.224 153.615 182.123 151.685 174.861 150.46C171.225 149.824 167.567 149.437 163.899 149.173C160.22 148.894 156.551 148.925 152.915 149.15C145.632 149.569 138.585 151.173 132.267 153.793C129.135 155.134 126.185 156.731 123.504 158.552C122.849 159.017 122.152 159.475 121.53 159.947L119.771 161.381C118.73 162.389 117.711 163.42 116.971 164.528C115.405 166.722 114.612 169.148 114.676 171.659C114.719 174.171 115.566 176.76 116.918 179.279C118.258 181.813 120.125 184.263 122.141 186.689C124.212 189.092 126.496 191.448 128.92 193.766C133.758 198.408 139.046 202.943 144.227 207.772C146.812 210.198 149.354 212.717 151.757 215.407C154.159 218.096 156.444 220.964 158.343 224.165C162.161 230.715 163.641 237.327 164.274 243.698C165.422 256.402 163.18 268.099 163.502 278.578C163.652 283.81 164.446 288.632 166.548 292.902C167.589 295.05 169.026 297.057 170.807 298.987C172.469 300.762 174.293 302.196 176.567 303.235C178.83 304.281 181.64 305.002 184.89 305.289C188.13 305.583 191.712 305.475 195.359 305.126C199.017 304.769 202.75 304.188 206.493 303.498C210.215 302.762 213.969 301.956 217.702 301.049C225.178 299.289 232.612 297.274 240.152 295.476C247.682 293.662 255.362 292.065 263.321 291.197Z" fill="#1D1D1D"/>
<path d="M227.503 55.6667C230.187 54.9801 232.71 54.5617 235.168 54.2828C236.403 54.1219 237.594 54.0253 238.808 53.9288C239.988 53.8644 241.191 53.7893 242.361 53.7679C244.712 53.6713 246.999 53.7357 249.275 53.8108C258.335 54.1648 266.988 55.5594 275.523 56.8789L278.55 57.3294L279.892 57.5333L281.266 57.6406C282.179 57.7264 283.134 57.7049 284.09 57.7264C285.045 57.6835 286.011 57.6513 286.999 57.5762C287.976 57.4904 288.953 57.3938 289.962 57.2436C290.95 57.1042 291.948 56.9433 292.957 56.7502C294.954 56.3425 296.994 55.9134 299.001 55.3448C307.128 53.1993 315.169 50.0239 324.133 47.9749C328.642 47.0309 333.473 46.3336 338.615 46.8807C341.191 47.0845 343.757 47.7496 346.291 48.5649C347.525 49.0262 348.792 49.4875 349.973 50.0883C350.574 50.3886 351.186 50.6676 351.766 50.9787L353.473 51.9871C355.749 53.3602 357.799 54.9586 359.753 56.6536C360.751 57.5118 361.696 58.5524 362.662 59.5394C363.607 60.5478 364.38 61.642 365.25 62.7147C366.087 63.7875 366.753 64.9246 367.493 66.0618C367.869 66.6303 368.17 67.2096 368.47 67.7889L369.393 69.5483L369.844 70.4387L370.22 71.3291L370.972 73.1313C371.519 74.3328 371.884 75.5343 372.281 76.768C373.827 81.6383 374.654 86.5945 374.922 91.4863C375.158 96.3781 374.869 101.216 374.128 105.947C373.376 110.667 372.077 115.259 370.403 119.689C369.973 120.794 369.522 121.889 369.061 122.972C368.588 124.056 368.041 125.118 367.526 126.169C367.021 127.231 366.452 128.271 365.872 129.291C365.293 130.32 364.724 131.34 364.079 132.337C361.61 136.339 358.733 140.093 355.695 143.601C352.625 147.099 349.35 150.37 345.829 153.267C342.329 156.185 338.669 158.813 334.761 160.98C330.864 163.136 326.709 164.799 322.372 165.743C317.992 166.677 313.333 166.569 308.899 165.432C304.466 164.316 300.257 162.353 296.285 160.079C288.341 155.455 281.052 149.716 274.331 143.676C270.96 140.64 267.804 137.487 264.798 134.247C264.379 133.764 264.143 133.625 263.864 133.378L263.08 132.691C262.479 132.284 262.007 131.812 261.373 131.425L260.515 130.814C260.203 130.621 259.881 130.449 259.581 130.245C259.001 129.838 258.271 129.505 257.659 129.108C254.975 127.628 251.915 126.18 248.394 124.774L242.844 122.597L239.87 121.438L236.768 120.161C234.674 119.314 232.463 118.252 230.219 117.147C227.954 115.945 225.624 114.647 223.273 113.006C220.912 111.322 218.539 109.466 216.327 107.074C214.137 104.724 212.087 102.021 210.53 99.0279L209.929 97.9229L209.414 96.7751C209.081 96.0134 208.738 95.241 208.437 94.4686C207.932 92.9238 207.363 91.3469 207.074 89.8021L206.59 87.4742L206.301 85.2106C206.075 83.6766 206.064 82.2391 206.011 80.7801C205.989 80.3939 205.979 80.0936 205.979 79.643C205.989 79.053 206.011 78.4629 206.054 77.8837C206.097 76.7358 206.311 75.4807 206.58 74.247C206.644 73.9466 206.719 73.6462 206.794 73.3351L207.084 72.4125C207.288 71.8011 207.514 71.2003 207.739 70.5996C208.254 69.4303 208.866 68.2717 209.532 67.2311C209.886 66.7269 210.23 66.2227 210.605 65.7399C210.788 65.4932 210.981 65.2465 211.164 65.0212L211.743 64.3775C212.13 63.9591 212.527 63.5515 212.935 63.1438C213.332 62.7362 213.73 62.4358 214.137 62.0818C214.535 61.7492 214.953 61.4167 215.361 61.1056L216.553 60.2903C216.95 60.0328 217.369 59.7432 217.755 59.5286L218.904 58.8957C221.985 57.2758 224.819 56.364 227.503 55.6667Z" fill="#1D1D1D"/>
<path d="M104.046 278.921C104.561 281.881 104.722 284.703 104.647 287.417C104.572 292.856 103.337 297.844 101.995 302.704C100.632 307.574 98.9679 312.294 96.8959 316.854C94.7811 321.391 92.2153 325.747 89.0161 329.738C85.8062 333.717 82.1132 337.461 77.7117 340.658C73.2887 343.801 67.7921 346.097 61.7588 347.009C58.7529 347.449 55.6289 347.535 52.5693 347.191C49.5311 346.827 46.5789 346.054 44.0131 344.885C41.4259 343.737 39.2144 342.278 37.3035 340.723C35.3818 339.167 33.7178 337.515 32.1075 335.852C31.2594 334.93 30.5079 333.943 29.8423 332.87C29.2089 331.786 28.6936 330.639 28.2427 329.437C27.4054 327.045 26.8793 324.492 26.5358 321.896C25.8487 316.693 25.6984 311.136 26.364 305.804C27.0189 300.483 28.6722 295.516 31.2594 291.279C33.8467 287.041 37.2498 283.437 41.2541 280.573C45.237 277.665 49.9176 275.595 54.5017 273.696C59.1501 271.851 63.659 270.113 67.9424 268.096C72.301 266.144 76.3698 263.827 81.5765 262.207C82.8969 261.81 84.2818 261.456 85.8492 261.284C87.3951 261.091 89.0913 261.048 90.9378 261.359C92.9238 261.692 95.2964 262.797 97.0462 264.331C97.4649 264.717 97.9158 265.125 98.2808 265.532C98.6458 265.94 99.0108 266.369 99.3544 266.809C99.9555 267.646 100.557 268.547 100.975 269.384C101.469 270.263 101.791 271.046 102.156 271.915C102.446 272.699 102.79 273.567 102.994 274.318L103.337 275.509L103.627 276.657C103.777 277.44 103.906 278.159 104.046 278.921Z" fill="#1D1D1D"/>
<g clip-path="url(#clip0_35_4136)">
<path d="M236 363C343.143 363 430 357.931 430 351.677C430 345.424 343.143 340.354 236 340.354C128.857 340.354 42 345.424 42 351.677C42 357.931 128.857 363 236 363Z" fill="#1D1D1D"/>
<path d="M346.664 198.459C346.544 198.459 346.424 198.459 346.304 198.449C319.658 196.268 301.308 173.492 300.538 172.522C299.007 170.592 299.327 167.781 301.258 166.241C303.189 164.71 306.001 165.03 307.532 166.961C307.742 167.231 323.441 186.576 345.183 189.336C352.237 182.345 358.17 163.85 357.52 158.249C357.51 158.199 357.51 158.148 357.51 158.088C357.36 156.288 357.03 150.126 358.801 146.446C359.871 144.225 362.543 143.285 364.764 144.355C366.985 145.425 367.926 148.096 366.855 150.317C366.415 151.237 366.205 154.558 366.415 157.308C367.405 166.511 359.431 189.736 349.405 197.508C348.615 198.129 347.654 198.459 346.664 198.459Z" fill="#7D7D7D"/>
<path d="M134.763 174.213C126.829 174.213 104.366 172.262 86.1758 151.927C84.765 150.347 84.6549 147.986 85.9156 146.286C93.1397 136.573 105.887 113.637 107.878 106.165C107.058 104.745 105.577 102.705 103.736 101.834C102.315 101.164 101.344 99.7938 101.184 98.2334L100.464 90.9116C100.224 88.451 102.015 86.2704 104.476 86.0304C106.928 85.7903 109.119 87.5808 109.359 90.0414L109.859 95.1327C114.222 98.2634 116.403 103.145 116.673 103.775C116.973 104.485 117.083 105.265 117.003 106.035C116.083 113.977 103.205 136.943 95.2809 148.556C113.781 166.991 135.894 165.31 136.864 165.22C139.306 165.02 141.487 166.821 141.707 169.271C141.927 171.722 140.126 173.892 137.675 174.123C137.465 174.133 136.434 174.213 134.763 174.213Z" fill="#7D7D7D"/>
<path d="M278.885 351.537H266.908C265.507 351.537 264.196 350.887 263.346 349.777C262.505 348.666 262.225 347.226 262.595 345.876C265.727 334.633 267.268 325.491 268.419 311.157C264.176 291.202 260.184 272.937 260.144 272.747C259.614 270.337 261.145 267.956 263.556 267.426C265.967 266.896 268.349 268.426 268.879 270.837C268.919 271.027 273.001 289.702 277.304 309.927C277.394 310.347 277.424 310.777 277.384 311.207C276.373 324.07 275.073 332.962 272.701 342.595H278.885C281.356 342.595 283.357 344.595 283.357 347.066C283.357 349.537 281.356 351.537 278.885 351.537Z" fill="#7D7D7D"/>
<path d="M186.293 351.537H179.529C178.238 351.537 177.007 350.977 176.157 349.997C175.306 349.027 174.926 347.726 175.106 346.446C176.257 338.244 182.15 323.31 188.414 308.296C190.645 288.491 192.476 271.487 192.496 271.317C192.756 268.866 194.958 267.076 197.419 267.356C199.87 267.616 201.651 269.817 201.381 272.277C201.361 272.447 199.49 289.842 197.229 309.937C197.179 310.357 197.079 310.767 196.909 311.157C192.466 321.79 187.413 334.313 185.102 342.605H186.303C188.774 342.605 190.775 344.605 190.775 347.076C190.775 349.547 188.764 351.537 186.293 351.537Z" fill="#7D7D7D"/>
<path d="M190.185 46.3403L138.095 98.4234C135.474 156.148 135.694 216.783 138.095 279.659H310.353C306.941 198.529 306.621 120.439 310.353 46.3503H190.185V46.3403Z" fill="white"/>
<path d="M310.352 280.549H138.095C137.614 280.549 137.224 280.169 137.204 279.689C134.703 214.413 134.703 153.407 137.204 98.3835C137.214 98.1635 137.304 97.9534 137.464 97.7934L189.564 45.7103C189.734 45.5402 189.954 45.4502 190.194 45.4502H310.362C310.603 45.4502 310.843 45.5502 311.013 45.7303C311.183 45.9103 311.273 46.1504 311.263 46.3904C307.671 117.748 307.671 194.048 311.263 279.619C311.273 279.859 311.183 280.099 311.013 280.279C310.823 280.449 310.593 280.549 310.352 280.549ZM138.945 278.759H309.412C305.87 193.878 305.87 118.128 309.402 47.2306H190.554L138.965 98.8136C136.494 153.457 136.494 213.993 138.945 278.759Z" fill="#1D1D1D"/>
<path d="M188.824 222.815L190.705 222.655C190.835 223.405 191.065 224.035 191.416 224.515C191.766 224.995 192.286 225.395 192.987 225.685C193.687 225.985 194.467 226.135 195.328 226.135C196.088 226.135 196.759 226.025 197.329 225.795C197.899 225.565 198.32 225.255 198.59 224.865C198.86 224.465 198.98 224.035 198.96 223.575C198.94 223.105 198.78 222.685 198.49 222.335C198.2 221.984 197.729 221.684 197.089 221.444C196.679 221.284 195.768 221.044 194.367 220.704C192.967 220.374 191.976 220.054 191.406 219.764C190.665 219.384 190.105 218.914 189.725 218.354C189.345 217.793 189.134 217.163 189.104 216.473C189.064 215.713 189.254 215.003 189.655 214.333C190.055 213.672 190.665 213.162 191.476 212.822C192.286 212.482 193.207 212.302 194.227 212.302C195.348 212.302 196.338 212.482 197.219 212.842C198.089 213.202 198.77 213.732 199.27 214.433C199.76 215.133 200.051 215.923 200.121 216.813L198.21 216.953C198.059 216.003 197.679 215.283 197.059 214.793C196.439 214.303 195.548 214.062 194.387 214.062C193.177 214.062 192.306 214.282 191.776 214.723C191.246 215.163 190.995 215.703 191.025 216.323C191.055 216.863 191.266 217.313 191.676 217.663C192.076 218.013 193.097 218.374 194.738 218.744C196.378 219.114 197.509 219.434 198.129 219.704C199.03 220.114 199.7 220.624 200.151 221.244C200.601 221.864 200.841 222.585 200.881 223.395C200.921 224.195 200.721 224.955 200.301 225.665C199.87 226.376 199.24 226.926 198.4 227.326C197.559 227.716 196.599 227.916 195.518 227.916C194.147 227.916 192.997 227.716 192.056 227.316C191.116 226.916 190.355 226.316 189.795 225.515C189.224 224.725 188.904 223.825 188.824 222.815Z" fill="#1D1D1D"/>
<path d="M210.896 224.145L212.827 224.385C212.577 225.505 212.057 226.376 211.276 226.986C210.486 227.606 209.455 227.916 208.185 227.916C206.584 227.916 205.293 227.426 204.303 226.436C203.322 225.445 202.782 224.065 202.702 222.295C202.612 220.454 203.022 219.024 203.922 218.014C204.823 216.993 206.024 216.493 207.534 216.493C208.995 216.493 210.216 216.993 211.186 217.984C212.157 218.984 212.687 220.384 212.777 222.185C212.787 222.295 212.787 222.455 212.787 222.675H204.633C204.763 223.875 205.143 224.795 205.783 225.435C206.424 226.076 207.204 226.396 208.115 226.396C208.795 226.396 209.365 226.216 209.826 225.856C210.296 225.495 210.646 224.925 210.896 224.145ZM204.663 221.144H210.776C210.646 220.224 210.386 219.534 209.976 219.074C209.355 218.364 208.565 218.004 207.624 218.004C206.774 218.004 206.074 218.284 205.513 218.854C204.963 219.424 204.683 220.194 204.663 221.144Z" fill="#1D1D1D"/>
<path d="M215.288 227.666L214.768 216.733H216.439L216.519 218.394C216.909 217.613 217.279 217.103 217.619 216.863C217.969 216.613 218.36 216.493 218.79 216.493C219.41 216.493 220.061 216.693 220.721 217.093L220.161 218.814C219.69 218.544 219.24 218.414 218.78 218.414C218.37 218.414 218.019 218.534 217.709 218.784C217.399 219.024 217.189 219.364 217.069 219.794C216.899 220.454 216.829 221.174 216.859 221.955L217.129 227.676H215.288V227.666Z" fill="#1D1D1D"/>
<path d="M225.374 227.666L220.691 216.733H222.653L225.314 223.285C225.604 223.995 225.874 224.725 226.124 225.485C226.265 224.905 226.455 224.215 226.715 223.405L228.826 216.733H230.727L227.105 227.666H225.374Z" fill="#1D1D1D"/>
<path d="M232.268 214.693L232.168 212.562H234.019L234.119 214.693H232.268ZM232.898 227.666L232.378 216.733H234.229L234.749 227.666H232.898Z" fill="#1D1D1D"/>
<path d="M244.516 223.655L246.347 223.895C246.207 225.145 245.747 226.136 244.956 226.846C244.166 227.556 243.175 227.916 241.985 227.916C240.484 227.916 239.263 227.426 238.303 226.446C237.342 225.465 236.822 224.065 236.732 222.235C236.672 221.054 236.822 220.024 237.172 219.134C237.522 218.244 238.082 217.583 238.863 217.143C239.643 216.703 240.504 216.473 241.444 216.473C242.635 216.473 243.616 216.773 244.406 217.373C245.186 217.974 245.717 218.834 245.987 219.934L244.196 220.214C243.986 219.484 243.656 218.924 243.205 218.554C242.755 218.184 242.215 217.994 241.594 217.994C240.664 217.994 239.913 218.324 239.363 218.994C238.813 219.664 238.573 220.724 238.643 222.175C238.713 223.645 239.043 224.715 239.643 225.375C240.234 226.046 240.994 226.376 241.895 226.376C242.625 226.376 243.215 226.156 243.686 225.705C244.156 225.275 244.436 224.585 244.516 223.655Z" fill="#1D1D1D"/>
<path d="M255.441 224.145L257.372 224.385C257.122 225.505 256.602 226.376 255.821 226.986C255.031 227.606 254 227.916 252.73 227.916C251.129 227.916 249.838 227.426 248.847 226.436C247.867 225.445 247.327 224.065 247.247 222.295C247.156 220.454 247.567 219.024 248.457 218.014C249.358 216.993 250.558 216.493 252.069 216.493C253.53 216.493 254.751 216.993 255.731 217.984C256.702 218.984 257.232 220.384 257.322 222.185C257.322 222.295 257.332 222.455 257.332 222.675H249.178C249.308 223.875 249.688 224.795 250.328 225.435C250.969 226.076 251.749 226.396 252.66 226.396C253.34 226.396 253.91 226.216 254.371 225.856C254.841 225.495 255.201 224.925 255.441 224.145ZM249.208 221.144H255.321C255.191 220.224 254.931 219.534 254.521 219.074C253.89 218.364 253.11 218.004 252.169 218.004C251.319 218.004 250.618 218.284 250.058 218.854C249.508 219.424 249.228 220.194 249.208 221.144Z" fill="#1D1D1D"/>
<path d="M179.479 248.751L179.398 247.141C178.608 248.381 177.477 248.991 176.017 248.991C175.366 248.991 174.766 248.871 174.196 248.621C173.625 248.371 173.195 248.061 172.905 247.691C172.615 247.321 172.405 246.861 172.264 246.321C172.174 245.96 172.104 245.38 172.064 244.59L171.744 237.808H173.595L173.885 243.87C173.935 244.84 173.995 245.49 174.095 245.83C174.236 246.32 174.506 246.701 174.896 246.981C175.286 247.261 175.756 247.401 176.317 247.401C176.877 247.401 177.387 247.261 177.858 246.971C178.328 246.681 178.658 246.3 178.838 245.81C179.018 245.32 179.088 244.61 179.038 243.67L178.758 237.808H180.609L181.129 248.751H179.479Z" fill="#1D1D1D"/>
<path d="M184.052 248.751L183.531 237.808H185.202L185.272 239.369C186.023 238.169 187.153 237.568 188.664 237.568C189.325 237.568 189.935 237.688 190.495 237.918C191.056 238.158 191.486 238.469 191.786 238.849C192.076 239.229 192.296 239.689 192.426 240.219C192.506 240.559 192.576 241.159 192.616 242.019L192.937 248.741H191.086L190.765 242.089C190.725 241.339 190.625 240.769 190.465 240.399C190.305 240.029 190.035 239.729 189.655 239.499C189.275 239.279 188.844 239.159 188.344 239.159C187.554 239.159 186.883 239.409 186.333 239.909C185.783 240.409 185.542 241.359 185.612 242.76L185.903 248.731H184.052V248.751Z" fill="#1D1D1D"/>
<path d="M202.852 247.401C202.191 247.981 201.551 248.401 200.931 248.641C200.31 248.881 199.63 249.001 198.899 249.001C197.699 249.001 196.758 248.711 196.088 248.121C195.417 247.531 195.057 246.781 195.007 245.87C194.977 245.34 195.077 244.85 195.307 244.4C195.527 243.96 195.828 243.6 196.218 243.33C196.598 243.06 197.038 242.86 197.519 242.72C197.879 242.62 198.419 242.53 199.149 242.44C200.64 242.26 201.731 242.049 202.421 241.799C202.411 241.549 202.411 241.379 202.411 241.319C202.371 240.569 202.171 240.029 201.811 239.719C201.321 239.299 200.6 239.089 199.67 239.089C198.799 239.089 198.159 239.239 197.759 239.549C197.358 239.859 197.078 240.399 196.918 241.169L195.097 240.919C195.227 240.139 195.467 239.519 195.818 239.039C196.168 238.559 196.698 238.199 197.399 237.938C198.099 237.678 198.919 237.548 199.86 237.548C200.79 237.548 201.561 237.658 202.151 237.878C202.742 238.098 203.192 238.379 203.482 238.709C203.772 239.039 203.982 239.459 204.122 239.969C204.202 240.289 204.252 240.859 204.292 241.679L204.412 244.15C204.493 245.87 204.583 246.961 204.683 247.421C204.783 247.881 204.963 248.311 205.213 248.731H203.272C203.082 248.371 202.932 247.921 202.852 247.401ZM202.501 243.27C201.841 243.55 200.84 243.78 199.51 243.97C198.749 244.08 198.219 244.2 197.909 244.34C197.599 244.48 197.368 244.68 197.208 244.94C197.048 245.2 196.978 245.5 196.988 245.82C197.008 246.311 197.218 246.731 197.609 247.061C197.999 247.391 198.559 247.551 199.28 247.551C199.99 247.551 200.62 247.391 201.161 247.081C201.701 246.771 202.091 246.341 202.321 245.8C202.501 245.38 202.571 244.76 202.531 243.95L202.501 243.27Z" fill="#1D1D1D"/>
<path d="M210.556 248.751L205.873 237.808H207.834L210.496 244.36C210.786 245.07 211.056 245.8 211.306 246.561C211.446 245.98 211.636 245.29 211.896 244.48L214.008 237.808H215.909L212.287 248.751H210.556Z" fill="#1D1D1D"/>
<path d="M225.145 247.401C224.484 247.981 223.844 248.401 223.223 248.641C222.603 248.881 221.923 249.001 221.192 249.001C219.992 249.001 219.051 248.711 218.381 248.121C217.71 247.531 217.35 246.781 217.3 245.87C217.27 245.34 217.37 244.85 217.6 244.4C217.82 243.96 218.121 243.6 218.511 243.33C218.891 243.06 219.331 242.86 219.812 242.72C220.172 242.62 220.712 242.53 221.442 242.44C222.933 242.26 224.024 242.049 224.714 241.799C224.704 241.549 224.704 241.379 224.704 241.319C224.664 240.569 224.464 240.029 224.104 239.719C223.614 239.299 222.893 239.089 221.963 239.089C221.092 239.089 220.452 239.239 220.052 239.549C219.651 239.859 219.371 240.399 219.211 241.169L217.39 240.919C217.52 240.139 217.76 239.519 218.111 239.039C218.461 238.559 218.991 238.199 219.691 237.938C220.392 237.678 221.212 237.548 222.153 237.548C223.083 237.548 223.854 237.658 224.444 237.878C225.035 238.098 225.485 238.379 225.775 238.709C226.065 239.039 226.275 239.459 226.415 239.969C226.495 240.289 226.545 240.859 226.585 241.679L226.705 244.15C226.786 245.87 226.876 246.961 226.976 247.421C227.076 247.881 227.256 248.311 227.506 248.731H225.565C225.365 248.371 225.215 247.921 225.145 247.401ZM224.784 243.27C224.124 243.55 223.123 243.78 221.793 243.97C221.032 244.08 220.502 244.2 220.192 244.34C219.882 244.48 219.651 244.68 219.491 244.94C219.331 245.2 219.261 245.5 219.271 245.82C219.291 246.311 219.501 246.731 219.892 247.061C220.282 247.391 220.842 247.551 221.563 247.551C222.273 247.551 222.903 247.391 223.444 247.081C223.984 246.771 224.374 246.341 224.604 245.8C224.784 245.38 224.854 244.76 224.814 243.95L224.784 243.27Z" fill="#1D1D1D"/>
<path d="M229.186 235.788L229.086 233.657H230.937L231.037 235.788H229.186ZM229.806 248.751L229.286 237.809H231.137L231.657 248.751H229.806Z" fill="#1D1D1D"/>
<path d="M234.449 248.751L233.729 233.657H235.58L236.3 248.751H234.449Z" fill="#1D1D1D"/>
<path d="M246.246 247.401C245.586 247.981 244.945 248.401 244.325 248.641C243.705 248.881 243.024 249.001 242.294 249.001C241.093 249.001 240.153 248.711 239.482 248.121C238.812 247.531 238.452 246.781 238.402 245.87C238.372 245.34 238.472 244.85 238.702 244.4C238.922 243.96 239.222 243.6 239.612 243.33C239.993 243.06 240.433 242.86 240.913 242.72C241.273 242.62 241.814 242.53 242.544 242.44C244.035 242.26 245.125 242.049 245.816 241.799C245.806 241.549 245.806 241.379 245.806 241.319C245.766 240.569 245.566 240.029 245.206 239.719C244.715 239.299 243.995 239.089 243.064 239.089C242.194 239.089 241.553 239.239 241.153 239.549C240.753 239.859 240.473 240.399 240.313 241.169L238.492 240.919C238.622 240.139 238.862 239.519 239.212 239.039C239.562 238.559 240.093 238.199 240.793 237.938C241.493 237.678 242.314 237.548 243.254 237.548C244.185 237.548 244.955 237.658 245.546 237.878C246.136 238.098 246.586 238.379 246.876 238.709C247.167 239.039 247.377 239.459 247.517 239.969C247.597 240.289 247.647 240.859 247.687 241.679L247.807 244.15C247.887 245.87 247.977 246.961 248.087 247.421C248.187 247.881 248.367 248.311 248.617 248.731H246.676C246.476 248.371 246.326 247.921 246.246 247.401ZM245.896 243.27C245.236 243.55 244.235 243.78 242.904 243.97C242.144 244.08 241.614 244.2 241.303 244.34C240.993 244.48 240.763 244.68 240.603 244.94C240.443 245.2 240.373 245.5 240.393 245.82C240.413 246.311 240.623 246.731 241.013 247.061C241.403 247.391 241.964 247.551 242.684 247.551C243.395 247.551 244.025 247.391 244.565 247.081C245.105 246.771 245.496 246.341 245.726 245.8C245.906 245.38 245.976 244.76 245.936 243.95L245.896 243.27Z" fill="#1D1D1D"/>
<path d="M252.619 248.751H250.898L250.178 233.657H252.029L252.289 239.039C253.029 238.059 254 237.568 255.221 237.568C255.891 237.568 256.541 237.708 257.152 237.979C257.762 238.249 258.282 238.629 258.693 239.119C259.103 239.609 259.433 240.199 259.693 240.899C259.943 241.589 260.093 242.33 260.133 243.12C260.223 244.99 259.833 246.441 258.953 247.471C258.072 248.491 256.992 249.001 255.691 249.001C254.4 249.001 253.36 248.461 252.569 247.381L252.619 248.751ZM252.329 243.2C252.389 244.51 252.619 245.46 252.999 246.041C253.63 246.991 254.44 247.471 255.441 247.471C256.251 247.471 256.932 247.121 257.492 246.411C258.052 245.711 258.292 244.66 258.232 243.27C258.162 241.84 257.832 240.789 257.232 240.109C256.631 239.429 255.931 239.089 255.131 239.089C254.32 239.089 253.64 239.439 253.079 240.149C252.509 240.849 252.269 241.87 252.329 243.2Z" fill="#1D1D1D"/>
<path d="M262.595 248.751L261.875 233.657H263.726L264.446 248.751H262.595Z" fill="#1D1D1D"/>
<path d="M274.652 245.23L276.583 245.47C276.333 246.591 275.813 247.461 275.032 248.071C274.242 248.691 273.211 249.001 271.941 249.001C270.34 249.001 269.049 248.511 268.058 247.521C267.078 246.531 266.538 245.15 266.457 243.38C266.367 241.539 266.778 240.109 267.678 239.099C268.579 238.078 269.779 237.578 271.29 237.578C272.751 237.578 273.972 238.079 274.942 239.069C275.913 240.069 276.443 241.469 276.533 243.27C276.533 243.38 276.543 243.55 276.543 243.77H268.389C268.519 244.97 268.899 245.89 269.539 246.531C270.18 247.171 270.96 247.491 271.871 247.491C272.551 247.491 273.121 247.311 273.582 246.951C274.052 246.581 274.402 246.01 274.652 245.23ZM268.419 242.24H274.532C274.402 241.319 274.142 240.629 273.732 240.169C273.111 239.459 272.321 239.099 271.38 239.099C270.53 239.099 269.829 239.389 269.269 239.949C268.719 240.519 268.439 241.279 268.419 242.24Z" fill="#1D1D1D"/>
<path d="M279.465 254.873H260.674C260.304 254.873 260.004 254.573 260.004 254.203C260.004 253.833 260.304 253.532 260.674 253.532H279.465C279.835 253.532 280.135 253.833 280.135 254.203C280.135 254.583 279.835 254.873 279.465 254.873Z" fill="#D3F56A"/>
<path d="M252.891 254.873H168.973C168.603 254.873 168.303 254.573 168.303 254.203C168.303 253.833 168.603 253.532 168.973 253.532H252.891C253.261 253.532 253.561 253.833 253.561 254.203C253.561 254.583 253.261 254.873 252.891 254.873Z" fill="#D3F56A"/>
<path d="M200.26 154.578C200.06 150.227 197.589 146.776 194.727 146.876C191.865 146.976 189.714 150.597 189.904 154.948C190.104 159.299 192.576 162.75 195.437 162.65C198.299 162.54 200.46 158.929 200.26 154.578Z" fill="#1D1D1D"/>
<path d="M260.664 153.217C260.464 148.866 257.993 145.415 255.131 145.515C252.27 145.615 250.118 149.236 250.309 153.587C250.509 157.938 252.98 161.389 255.842 161.289C258.703 161.179 260.865 157.568 260.664 153.217Z" fill="#1D1D1D"/>
<path d="M215.34 172.422C231.179 166.77 243.415 173.412 243.986 173.722C244.606 174.072 244.826 174.842 244.476 175.463C244.126 176.073 243.345 176.293 242.725 175.953C242.585 175.873 228.327 168.191 211.297 176.963C210.667 177.283 209.886 177.043 209.556 176.423C209.226 175.793 209.466 175.023 210.097 174.702C211.878 173.782 213.629 173.032 215.34 172.422Z" fill="#1D1D1D"/>
<path d="M191.615 113.717C192.046 113.727 192.476 113.847 192.876 114.077C194.107 114.797 194.517 116.368 193.797 117.588C186.603 129.741 174.746 130.341 174.246 130.361C172.825 130.421 171.624 129.321 171.554 127.911C171.484 126.5 172.575 125.32 173.985 125.26C174.376 125.24 183.611 124.67 189.354 114.978C189.834 114.147 190.715 113.697 191.615 113.717Z" fill="#1D1D1D"/>
<path d="M252.059 112.257C252.88 112.097 253.76 112.337 254.391 112.967C262.425 120.999 271.54 119.369 271.92 119.289C273.311 119.019 274.672 119.919 274.952 121.299C275.232 122.679 274.352 124.02 272.971 124.3C272.471 124.39 260.814 126.62 250.748 116.558C249.748 115.558 249.748 113.937 250.748 112.947C251.129 112.577 251.579 112.347 252.059 112.257Z" fill="#1D1D1D"/>
<path opacity="0.2" d="M307.76 140.244L300.456 140.934C297.835 141.184 295.444 139.444 294.873 136.873L284.737 91.4818C284.127 88.7411 285.788 86.0104 288.51 85.2902L308.111 80.1489L307.76 140.244Z" fill="#151515"/>
<path opacity="0.2" d="M194.988 103.075C189.895 89.1711 184.802 66.9355 190.185 46.3503L138.096 98.4234C152.814 103.345 176.287 105.485 194.988 103.075Z" fill="#151515"/>
<path d="M190.185 98.4234C184.472 81.5592 186.803 58.6334 190.185 46.3403L138.096 98.4234C153.865 101.294 171.475 100.844 190.185 98.4234Z" fill="white"/>
<path d="M161.92 101.304C153.225 101.304 145.27 100.634 137.936 99.3037C137.606 99.2436 137.346 99.0136 137.246 98.6935C137.145 98.3734 137.236 98.0333 137.466 97.7933L189.565 45.7102C189.855 45.4201 190.296 45.3701 190.646 45.5701C190.996 45.7702 191.166 46.1903 191.056 46.5804C187.904 58.0233 185.303 81.1991 191.036 98.1334C191.126 98.3834 191.086 98.6635 190.946 98.8936C190.806 99.1236 190.566 99.2737 190.306 99.3037C180.02 100.634 170.594 101.304 161.92 101.304ZM139.937 97.8333C153.775 100.124 169.854 100.074 188.995 97.6732C184.282 82.7395 185.353 62.9645 188.525 49.2611L139.937 97.8333Z" fill="#1D1D1D"/>
<path d="M369.177 174.513C368.516 174.513 367.906 174.073 367.736 173.392L349.385 103.495C349.175 102.695 349.655 101.884 350.456 101.674C351.256 101.464 352.067 101.944 352.277 102.745L370.627 172.642C370.837 173.442 370.357 174.253 369.557 174.463C369.437 174.493 369.307 174.513 369.177 174.513Z" fill="#7D7D7D"/>
<path d="M402.747 72.1441L401.779 72.3979L403.179 77.7291L404.146 77.4752L402.747 72.1441Z" fill="#D3F56A"/>
<path d="M400.204 66.4654L396.352 51.7817C395.461 48.3809 392.38 46.0003 388.858 46.0003C388.197 46.0003 387.527 46.0903 386.886 46.2503L376.811 48.901L376.561 47.9307L386.636 45.2901C387.357 45.1 388.107 45 388.858 45C392.83 45 396.302 47.6807 397.312 51.5216L401.164 66.2053L400.204 66.4654Z" fill="#D3F56A"/>
<path d="M402.255 104.815L306.861 129.841C304.059 130.571 301.188 128.901 300.457 126.1L288.38 80.0988C287.65 77.298 289.321 74.4273 292.122 73.6971L387.517 48.6708C390.318 47.9407 393.19 49.6111 393.92 52.4118L405.997 98.4134C406.737 101.214 405.057 104.075 402.255 104.815Z" fill="#D3F56A"/>
</g>
<g clip-path="url(#clip1_35_4136)">
<path d="M318.012 105.45C317.092 105.262 316.287 104.831 315.602 104.177C314.917 103.523 314.425 102.649 314.102 101.539L317.736 100.599C317.946 101.205 318.254 101.637 318.636 101.879C319.019 102.121 319.466 102.197 319.966 102.068C320.466 101.939 320.83 101.695 321.057 101.338C321.285 100.981 321.32 100.567 321.191 100.068C321.083 99.6481 320.878 99.3387 320.573 99.1194C320.289 98.9158 319.948 98.7694 319.569 98.6758C319.189 98.5822 318.654 98.5075 317.963 98.4516C316.959 98.3491 316.137 98.1993 315.471 98.0305C314.817 97.8375 314.187 97.4675 313.617 96.9118C313.046 96.3561 312.596 95.5775 312.322 94.5188C311.919 92.9607 312.066 91.6016 312.789 90.4769C313.512 89.3523 314.626 88.5739 316.16 88.1773C317.71 87.7763 319.074 87.8924 320.24 88.5499C321.418 89.1831 322.238 90.2922 322.713 91.853L319.012 92.81C318.839 92.2793 318.559 91.883 318.181 91.661C317.799 91.419 317.357 91.3626 316.874 91.4877C316.457 91.5954 316.16 91.8215 315.977 92.1458C315.794 92.4702 315.775 92.8799 315.905 93.3792C316.044 93.9186 316.369 94.282 316.869 94.4938C317.38 94.6814 318.134 94.8485 319.122 94.9553C320.115 95.082 320.959 95.2476 321.613 95.4406C322.268 95.6336 322.875 95.988 323.457 96.5194C324.039 97.0508 324.451 97.8181 324.715 98.8368C324.963 99.7956 324.99 100.726 324.774 101.613C324.576 102.496 324.136 103.27 323.493 103.948C322.84 104.585 321.985 105.062 320.935 105.334C319.901 105.601 318.933 105.638 318.012 105.45Z" fill="#1D1D1D"/>
<path d="M330.886 101.588C329.595 101.134 328.442 100.324 327.451 99.1733C326.46 98.0231 325.761 96.6268 325.333 94.9689C324.909 93.331 324.843 91.7709 325.153 90.2844C325.462 88.7979 326.065 87.555 326.974 86.5314C327.905 85.5235 329.013 84.8535 330.33 84.513C331.647 84.1724 332.956 84.2172 334.248 84.6718C335.539 85.1263 336.669 85.9209 337.644 87.0754C338.618 88.23 339.317 89.6262 339.741 91.2642C340.164 92.9021 340.235 94.4822 339.926 95.9686C339.617 97.4551 339.03 98.6937 338.121 99.7173C337.212 100.741 336.121 101.407 334.788 101.751C333.454 102.096 332.172 102.023 330.886 101.588ZM336.171 95.9594C336.605 94.8881 336.651 93.619 336.268 92.1409C335.886 90.6627 335.243 89.5504 334.332 88.8483C333.438 88.1418 332.419 87.9152 331.302 88.204C330.168 88.4972 329.382 89.1694 328.926 90.2251C328.486 91.2764 328.446 92.5655 328.833 94.0636C329.216 95.5418 329.859 96.654 330.77 97.3562C331.664 98.0626 332.699 98.285 333.833 97.9918C334.955 97.723 335.72 97.035 336.171 95.9594Z" fill="#1D1D1D"/>
<path d="M350.994 97.3683L346.434 91.7707L345.601 91.9862L347.243 98.3383L343.826 99.2221L339.477 82.4031L345.211 80.9201C346.311 80.6356 347.324 80.6295 348.226 80.8863C349.128 81.1431 349.877 81.6315 350.467 82.3313C351.057 83.0312 351.49 83.8783 351.748 84.8771C352.037 85.9957 352.029 87.0634 351.739 88.0759C351.433 89.0928 350.826 89.9103 349.891 90.5571L354.85 96.3925L350.999 97.3883L350.994 97.3683ZM344.852 89.0899L346.969 88.5424C347.602 88.3785 348.023 88.0781 348.241 87.6166C348.465 87.1752 348.481 86.617 348.305 85.9379C348.14 85.2987 347.861 84.8381 347.446 84.5405C347.036 84.2628 346.518 84.1838 345.884 84.3476L343.767 84.8951L344.852 89.0899Z" fill="#1D1D1D"/>
<path d="M364.03 93.9972L359.47 88.3995L358.654 88.6108L360.296 94.9628L356.879 95.8466L352.529 79.0276L358.264 77.5446C359.364 77.2601 360.376 77.254 361.279 77.5108C362.181 77.7677 362.93 78.256 363.52 78.9558C364.11 79.6557 364.542 80.5028 364.801 81.5016C365.09 82.6202 365.081 83.6879 364.792 84.7004C364.486 85.7173 363.879 86.5348 362.944 87.1816L367.903 93.017L364.036 94.0171L364.03 93.9972ZM357.904 85.7144L360.022 85.1669C360.655 85.0031 361.075 84.7026 361.294 84.2411C361.518 83.7997 361.533 83.2415 361.358 82.5624C361.193 81.9232 360.913 81.4626 360.498 81.165C360.089 80.8873 359.57 80.8083 358.937 80.9721L356.82 81.5196L357.904 85.7144Z" fill="#1D1D1D"/>
<path d="M377.602 72.5437L375.648 85.0684L377.084 90.6215L373.666 91.5052L372.23 85.9522L364.449 75.9451L368.333 74.9406L372.891 81.2848L373.768 73.5352L377.602 72.5437Z" fill="#1D1D1D"/>
</g>
<defs>
<clipPath id="clip0_35_4136">
<rect width="388" height="318" fill="white" transform="translate(42 45)"/>
</clipPath>
<clipPath id="clip1_35_4136">
<rect width="68.7372" height="17.8056" fill="white" transform="translate(310.992 89.5137) rotate(-14.4993)"/>
</clipPath>
</defs>
</svg>
