<svg width="36" height="36" viewBox="0 0 36 36" fill="none" xmlns="http://www.w3.org/2000/svg">
<g id="Group 3763">
<circle id="Ellipse 33" cx="18" cy="18" r="18" fill="#363636"/>
<path id="Vector" d="M23.6421 27.3242L23.6424 27.3244C23.6754 27.3427 23.6977 27.344 23.7135 27.3425C23.7329 27.3407 23.7589 27.3324 23.7861 27.312C23.8394 27.2719 23.8773 27.2025 23.8618 27.1059L23.8617 27.1055L22.957 21.4496L22.957 21.4494C22.8711 20.9113 23.0428 20.3566 23.4299 19.9657L23.4304 19.9653L27.3891 15.9754L27.3894 15.9751C27.445 15.9192 27.4651 15.8399 27.4388 15.754C27.4128 15.6694 27.3617 15.6358 27.3101 15.6278L27.31 15.6278L21.8686 14.7846L21.8664 14.7843C21.3158 14.6973 20.8553 14.3377 20.6224 13.8408L20.6223 13.8405L18.2106 8.68982L18.2105 8.6896C18.1889 8.64338 18.1644 8.62205 18.1464 8.61086C18.1261 8.59819 18.1013 8.59083 18.0745 8.59074C18.0477 8.59065 18.0226 8.59786 18.0017 8.61068C17.9831 8.62206 17.958 8.64368 17.9357 8.69021L17.9357 8.69029L15.4773 13.824L15.4771 13.8242C15.2402 14.3186 14.7768 14.6763 14.2232 14.7579L14.2236 14.7578L14.1138 14.0159L14.2231 14.7579L23.6421 27.3242ZM23.6421 27.3242L18.7835 24.6392L18.7827 24.6387M23.6421 27.3242L18.7827 24.6387M18.7827 24.6387C18.2951 24.37 17.7079 24.3673 17.2176 24.6329L17.2169 24.6332M18.7827 24.6387L17.2169 24.6332M17.2169 24.6332L12.334 27.2854L12.3339 27.2854M17.2169 24.6332L12.3339 27.2854M12.3339 27.2854C12.3 27.3039 12.2773 27.305 12.2616 27.3034C12.2424 27.3014 12.2168 27.2931 12.1902 27.2728C12.1384 27.2333 12.1008 27.1642 12.1173 27.0668L12.1173 27.0666M12.3339 27.2854L12.1173 27.0666M12.1173 27.0666L13.0737 21.417L13.0738 21.4163M12.1173 27.0666L13.0738 21.4163M13.0738 21.4163C13.1642 20.879 12.9982 20.3227 12.6127 19.9283M13.0738 21.4163L12.6127 19.9283M12.6127 19.9283C12.6126 19.9282 12.6126 19.9281 12.6125 19.928L12.6127 19.9283ZM8.69001 15.913L8.68989 15.9129L8.15341 16.437L8.69001 15.913Z" stroke="white" stroke-width="1.5"/>
</g>
</svg>
